<svg width="51" height="50" viewBox="0 0 51 50" fill="none" xmlns="http://www.w3.org/2000/svg">
<path d="M50.4996 25.0133C50.5091 38.8025 39.2699 50.0227 25.4642 49.9991C11.6207 49.9802 0.476009 38.8025 0.499641 24.9708C0.523273 11.1674 11.6491 0.0368968 25.4689 -0.000881799C39.2179 -0.0386604 50.4902 11.2241 50.4996 25.0133ZM37.195 22.4018C37.1997 22.4018 37.1997 22.4018 37.2044 22.4018C37.2044 18.5201 37.2092 14.6336 37.2044 10.7519C37.2044 9.63267 36.6656 9.18877 35.588 9.38711C30.1764 10.3977 24.7647 11.4083 19.3578 12.4236C17.9304 12.6927 17.5807 13.1083 17.5807 14.5817C17.5807 17.4717 17.6185 20.3571 17.5996 23.2471C17.5807 26.2033 17.5428 29.1642 17.4436 32.1204C17.3963 33.4993 17.1411 33.6079 15.7563 33.9102C14.31 34.2218 12.8354 34.5288 11.4789 35.0907C10.0421 35.6857 9.3001 37.2772 9.50333 38.6278C9.75382 40.2853 10.8645 41.5651 12.4715 41.8389C13.2466 41.9712 14.0737 41.9334 14.863 41.8531C17.9777 41.5225 19.5704 39.747 19.5752 36.6349C19.5846 31.5915 19.5799 26.548 19.5799 21.5046C19.5799 20.1068 19.7359 19.9368 21.0876 19.6959C23.0396 19.3465 24.9916 18.9734 26.9388 18.6098C29.2831 18.1706 31.6273 17.7267 33.9763 17.3017C34.8649 17.1412 35.2146 17.4103 35.2146 18.2604C35.2241 21.6935 35.191 25.1266 35.2336 28.5598C35.2525 30.1842 34.6049 30.3684 33.3997 30.6423C31.9109 30.9823 30.3938 31.3082 29.0042 31.9126C27.6336 32.5029 27.0003 33.8015 27.1326 35.2938C27.2744 36.8758 28.196 38.0091 29.7179 38.4247C30.597 38.6608 31.5895 38.6561 32.5112 38.5616C35.6069 38.2453 37.1714 36.498 37.1855 33.4049C37.2092 29.7403 37.195 26.0711 37.195 22.4018Z" fill="#8DC832"/>
</svg>
