<?xml version="1.0" encoding="UTF-8"?>
<svg width="915px" height="28px" viewBox="0 0 915 28" version="1.1" xmlns="http://www.w3.org/2000/svg" xmlns:xlink="http://www.w3.org/1999/xlink">
    <title>listen_on</title>
    <defs>
        <linearGradient x1="50%" y1="0%" x2="50%" y2="100%" id="linearGradient-1">
            <stop stop-color="#F452FF" offset="0%"></stop>
            <stop stop-color="#832BC1" offset="100%"></stop>
        </linearGradient>
    </defs>
    <g id="Page-1" stroke="none" stroke-width="1" fill="none" fill-rule="evenodd">
        <g id="New-Player" transform="translate(-88.000000, -101.000000)">
            <path d="M86.9379359,133.997909 C86.6184979,133.997909 86.3068178,133.99383 85.9898958,133.98672 C85.4037527,133.970302 84.7085792,133.937676 84.0303892,133.816166 C83.3904647,133.700722 82.8218294,133.51281 82.2935562,133.243229 C81.7468317,132.966538 81.2554612,132.609118 80.8289846,132.180174 C80.394855,131.755411 80.038095,131.26728 79.759124,130.719858 C79.4872819,130.19199 79.3015109,129.625222 79.1898596,128.986929 C79.0618538,128.283384 79.0291447,127.569487 79.0153062,127.026247 C79.0087015,126.80571 79,126.071421 79,126.071421 L79,101.915194 C79,101.915194 79.0092256,101.192199 79.0153062,100.979818 C79.0291447,100.431977 79.0618538,99.7187075 79.1888113,99.0221688 C79.3009868,98.3804246 79.4867578,97.8141797 79.7585998,97.2841159 C80.0370467,96.7357524 80.3943308,96.2451114 80.8227993,95.8223361 C81.2564047,95.389313 81.749872,95.0309526 82.2929272,94.7531109 C82.8314744,94.4804978 83.3991662,94.29405 84.0261957,94.1843564 C84.7320626,94.0582453 85.4477842,94.0265607 85.9924119,94.0127575 L86.9384601,94 L233.056298,94 L234.013564,94.0132804 C234.551063,94.0265607 235.266679,94.0582453 235.961853,94.1833107 C236.593495,94.2936317 237.164856,94.4810206 237.713573,94.756248 C238.251072,95.0309526 238.74349,95.3894175 239.172483,95.8182579 C239.601476,96.24302 239.960752,96.7362752 240.245384,97.2867301 C240.515653,97.8212904 240.699957,98.3875353 240.806471,99.0109798 C240.928292,99.67071 240.966138,100.348217 240.988678,100.984419 C240.991718,101.28056 240.991718,101.598662 240.991718,101.915194 C241,102.30733 241,102.68054 241,103.056886 L241,124.941964 C241,125.321866 241,125.692565 240.991718,126.066297 C240.991718,126.406358 240.991718,126.717871 240.987629,127.038482 C240.966138,127.654293 240.928292,128.331381 240.808463,128.976681 C240.699957,129.618007 240.515653,130.184775 240.242344,130.722995 C239.959808,131.266234 239.600427,131.757398 239.17762,132.172017 C238.744539,132.609118 238.253063,132.965492 237.710532,133.241242 C237.166848,133.516888 236.611947,133.699676 235.961853,133.816166 C235.290268,133.937676 234.595094,133.970302 234.002241,133.98672 C233.695174,133.99383 233.373639,133.997909 233.061435,133.997909 L231.925003,134 L86.9379359,133.997909 Z" id="Path" fill="#000000"></path>
            <path d="M563.937936,133.997909 C563.618498,133.997909 563.306818,133.99383 562.989896,133.98672 C562.403753,133.970302 561.708579,133.937676 561.030389,133.816166 C560.390465,133.700722 559.821829,133.51281 559.293556,133.243229 C558.746832,132.966538 558.255461,132.609118 557.828985,132.180174 C557.394855,131.755411 557.038095,131.26728 556.759124,130.719858 C556.487282,130.19199 556.301511,129.625222 556.18986,128.986929 C556.061854,128.283384 556.029145,127.569487 556.015306,127.026247 C556.008701,126.80571 556,126.071421 556,126.071421 L556,101.915194 C556,101.915194 556.009226,101.192199 556.015306,100.979818 C556.029145,100.431977 556.061854,99.7187075 556.188811,99.0221688 C556.300987,98.3804246 556.486758,97.8141797 556.7586,97.2841159 C557.037047,96.7357524 557.394331,96.2451114 557.822799,95.8223361 C558.256405,95.389313 558.749872,95.0309526 559.292927,94.7531109 C559.831474,94.4804978 560.399166,94.29405 561.026196,94.1843564 C561.732063,94.0582453 562.447784,94.0265607 562.992412,94.0127575 L563.93846,94 L720.056298,94 L721.013564,94.0132804 C721.551063,94.0265607 722.266679,94.0582453 722.961853,94.1833107 C723.593495,94.2936317 724.164856,94.4810206 724.713573,94.756248 C725.251072,95.0309526 725.74349,95.3894175 726.172483,95.8182579 C726.601476,96.24302 726.960752,96.7362752 727.245384,97.2867301 C727.515653,97.8212904 727.699957,98.3875353 727.806471,99.0109798 C727.928292,99.67071 727.966138,100.348217 727.988678,100.984419 C727.991718,101.28056 727.991718,101.598662 727.991718,101.915194 C728,102.30733 728,102.68054 728,103.056886 L728,124.941964 C728,125.321866 728,125.692565 727.991718,126.066297 C727.991718,126.406358 727.991718,126.717871 727.987629,127.038482 C727.966138,127.654293 727.928292,128.331381 727.808463,128.976681 C727.699957,129.618007 727.515653,130.184775 727.242344,130.722995 C726.959808,131.266234 726.600427,131.757398 726.17762,132.172017 C725.744539,132.609118 725.253063,132.965492 724.710532,133.241242 C724.166848,133.516888 723.611947,133.699676 722.961853,133.816166 C722.290268,133.937676 721.595094,133.970302 721.002241,133.98672 C720.695174,133.99383 720.373639,133.997909 720.061435,133.997909 L718.925003,134 L563.937936,133.997909 Z" id="Path-Copy-3" fill="#000000"></path>
            <path d="M765.937936,133.997909 C765.618498,133.997909 765.306818,133.99383 764.989896,133.98672 C764.403753,133.970302 763.708579,133.937676 763.030389,133.816166 C762.390465,133.700722 761.821829,133.51281 761.293556,133.243229 C760.746832,132.966538 760.255461,132.609118 759.828985,132.180174 C759.394855,131.755411 759.038095,131.26728 758.759124,130.719858 C758.487282,130.19199 758.301511,129.625222 758.18986,128.986929 C758.061854,128.283384 758.029145,127.569487 758.015306,127.026247 C758.008701,126.80571 758,126.071421 758,126.071421 L758,101.915194 C758,101.915194 758.009226,101.192199 758.015306,100.979818 C758.029145,100.431977 758.061854,99.7187075 758.188811,99.0221688 C758.300987,98.3804246 758.486758,97.8141797 758.7586,97.2841159 C759.037047,96.7357524 759.394331,96.2451114 759.822799,95.8223361 C760.256405,95.389313 760.749872,95.0309526 761.292927,94.7531109 C761.831474,94.4804978 762.399166,94.29405 763.026196,94.1843564 C763.732063,94.0582453 764.447784,94.0265607 764.992412,94.0127575 L765.93846,94 L856.056298,94 L857.013564,94.0132804 C857.551063,94.0265607 858.266679,94.0582453 858.961853,94.1833107 C859.593495,94.2936317 860.164856,94.4810206 860.713573,94.756248 C861.251072,95.0309526 861.74349,95.3894175 862.172483,95.8182579 C862.601476,96.24302 862.960752,96.7362752 863.245384,97.2867301 C863.515653,97.8212904 863.699957,98.3875353 863.806471,99.0109798 C863.928292,99.67071 863.966138,100.348217 863.988678,100.984419 C863.991718,101.28056 863.991718,101.598662 863.991718,101.915194 C864,102.30733 864,102.68054 864,103.056886 L864,124.941964 C864,125.321866 864,125.692565 863.991718,126.066297 C863.991718,126.406358 863.991718,126.717871 863.987629,127.038482 C863.966138,127.654293 863.928292,128.331381 863.808463,128.976681 C863.699957,129.618007 863.515653,130.184775 863.242344,130.722995 C862.959808,131.266234 862.600427,131.757398 862.17762,132.172017 C861.744539,132.609118 861.253063,132.965492 860.710532,133.241242 C860.166848,133.516888 859.611947,133.699676 858.961853,133.816166 C858.290268,133.937676 857.595094,133.970302 857.002241,133.98672 C856.695174,133.99383 856.373639,133.997909 856.061435,133.997909 L854.925003,134 L765.937936,133.997909 Z" id="Path-Copy-4" fill="#000000"></path>
            <path d="M278.937936,133.997909 C278.618498,133.997909 278.306818,133.99383 277.989896,133.98672 C277.403753,133.970302 276.708579,133.937676 276.030389,133.816166 C275.390465,133.700722 274.821829,133.51281 274.293556,133.243229 C273.746832,132.966538 273.255461,132.609118 272.828985,132.180174 C272.394855,131.755411 272.038095,131.26728 271.759124,130.719858 C271.487282,130.19199 271.301511,129.625222 271.18986,128.986929 C271.061854,128.283384 271.029145,127.569487 271.015306,127.026247 C271.008701,126.80571 271,126.071421 271,126.071421 L271,101.915194 C271,101.915194 271.009226,101.192199 271.015306,100.979818 C271.029145,100.431977 271.061854,99.7187075 271.188811,99.0221688 C271.300987,98.3804246 271.486758,97.8141797 271.7586,97.2841159 C272.037047,96.7357524 272.394331,96.2451114 272.822799,95.8223361 C273.256405,95.389313 273.749872,95.0309526 274.292927,94.7531109 C274.831474,94.4804978 275.399166,94.29405 276.026196,94.1843564 C276.732063,94.0582453 277.447784,94.0265607 277.992412,94.0127575 L278.93846,94 L369.056298,94 L370.013564,94.0132804 C370.551063,94.0265607 371.266679,94.0582453 371.961853,94.1833107 C372.593495,94.2936317 373.164856,94.4810206 373.713573,94.756248 C374.251072,95.0309526 374.74349,95.3894175 375.172483,95.8182579 C375.601476,96.24302 375.960752,96.7362752 376.245384,97.2867301 C376.515653,97.8212904 376.699957,98.3875353 376.806471,99.0109798 C376.928292,99.67071 376.966138,100.348217 376.988678,100.984419 C376.991718,101.28056 376.991718,101.598662 376.991718,101.915194 C377,102.30733 377,102.68054 377,103.056886 L377,124.941964 C377,125.321866 377,125.692565 376.991718,126.066297 C376.991718,126.406358 376.991718,126.717871 376.987629,127.038482 C376.966138,127.654293 376.928292,128.331381 376.808463,128.976681 C376.699957,129.618007 376.515653,130.184775 376.242344,130.722995 C375.959808,131.266234 375.600427,131.757398 375.17762,132.172017 C374.744539,132.609118 374.253063,132.965492 373.710532,133.241242 C373.166848,133.516888 372.611947,133.699676 371.961853,133.816166 C371.290268,133.937676 370.595094,133.970302 370.002241,133.98672 C369.695174,133.99383 369.373639,133.997909 369.061435,133.997909 L367.925003,134 L278.937936,133.997909 Z" id="Path-Copy" fill="#000000"></path>
            <path d="M415.911456,133.997909 C415.552842,133.997909 415.202937,133.99383 414.847147,133.98672 C414.189119,133.970302 413.408688,133.937676 412.647324,133.816166 C411.928918,133.700722 411.290544,133.51281 410.697483,133.243229 C410.083707,132.966538 409.532074,132.609118 409.053294,132.180174 C408.565922,131.755411 408.165409,131.26728 407.852224,130.719858 C407.547043,130.19199 407.338489,129.625222 407.213144,128.986929 C407.06944,128.283384 407.032719,127.569487 407.017183,127.026247 C407.009769,126.80571 407,126.071421 407,126.071421 L407,101.915194 C407,101.915194 407.010357,101.192199 407.017183,100.979818 C407.032719,100.431977 407.06944,99.7187075 407.211967,99.0221688 C407.3379,98.3804246 407.546454,97.8141797 407.851636,97.2841159 C408.164232,96.7357524 408.565334,96.2451114 409.04635,95.8223361 C409.533134,95.389313 410.08712,95.0309526 410.696777,94.7531109 C411.301372,94.4804978 411.938687,94.29405 412.642616,94.1843564 C413.435051,94.0582453 414.23855,94.0265607 414.849972,94.0127575 L415.912045,94 L517.08207,94 L518.156737,94.0132804 C518.760155,94.0265607 519.563536,94.0582453 520.343967,94.1833107 C521.053075,94.2936317 521.694509,94.4810206 522.31052,94.756248 C522.913939,95.0309526 523.466749,95.3894175 523.948354,95.8182579 C524.429959,96.24302 524.833297,96.7362752 525.152837,97.2867301 C525.456253,97.8212904 525.663159,98.3875353 525.782736,99.0109798 C525.919497,99.67071 525.961985,100.348217 525.987289,100.984419 C525.990702,101.28056 525.990702,101.598662 525.990702,101.915194 C526,102.30733 526,102.68054 526,103.056886 L526,124.941964 C526,125.321866 526,125.692565 525.990702,126.066297 C525.990702,126.406358 525.990702,126.717871 525.986112,127.038482 C525.961985,127.654293 525.919497,128.331381 525.784973,128.976681 C525.663159,129.618007 525.456253,130.184775 525.149424,130.722995 C524.832238,131.266234 524.428782,131.757398 523.954121,132.172017 C523.467926,132.609118 522.916175,132.965492 522.307107,133.241242 C521.696745,133.516888 521.073789,133.699676 520.343967,133.816166 C519.590017,133.937676 518.809587,133.970302 518.144026,133.98672 C517.799299,133.99383 517.438331,133.997909 517.087837,133.997909 L515.812032,134 L415.911456,133.997909 Z" id="Path-Copy-2" fill="#000000"></path>
            <g id="XMLID_632_" transform="translate(88.000000, 101.000000)">
                <path d="M24.2135577,21.3731731 C23.9783654,21.9705769 23.4356731,22.8117308 22.6660577,23.4042308 C22.2217308,23.7464423 21.69125,24.0735577 20.9625962,24.2894231 C20.1858654,24.5196154 19.2291346,24.5974038 18.0383654,24.5974038 L7.15057692,24.5974038 C5.95990385,24.5974038 5.00317308,24.5196154 4.22634615,24.2894231 C3.49769231,24.0735577 2.96730769,23.7464423 2.52288462,23.4042308 C1.75336538,22.8116346 1.21057692,21.9705769 0.975384615,21.3731731 C0.501634615,20.1695192 0.496826923,18.8038462 0.496826923,17.94375 L0.496826923,17.94375 L0.496826923,7.05586538 L0.496826923,7.05586538 C0.496826923,6.19576923 0.501634615,4.83009615 0.975384615,3.62644231 C1.21057692,3.02903846 1.75326923,2.18788462 2.52288462,1.59538462 C2.96721154,1.25317308 3.49769231,0.926057692 4.22634615,0.710192308 C5.00307692,0.48 5.95980769,0.402211538 7.15057692,0.402211538 L7.15057692,0.402211538 L18.0384615,0.402211538 L18.0384615,0.402211538 C19.2291346,0.402211538 20.1858654,0.48 20.9626923,0.710192308 C21.6913462,0.926057692 22.2217308,1.25326923 22.6661538,1.59538462 C23.4356731,2.18798077 23.9784615,3.02903846 24.2136538,3.62644231 C24.6874038,4.83009615 24.6922115,6.19576923 24.6922115,7.05586538 L24.6922115,17.94375 C24.6922115,18.80375 24.6873077,20.1694231 24.2135577,21.3731731 Z" id="XMLID_662_" fill="url(#linearGradient-1)"></path>
                <path d="M24.2135577,21.3731731 C23.9783654,21.9705769 23.4356731,22.8117308 22.6660577,23.4042308 C22.2217308,23.7464423 21.69125,24.0735577 20.9625962,24.2894231 C20.1858654,24.5196154 19.2291346,24.5974038 18.0383654,24.5974038 L7.15057692,24.5974038 C5.95990385,24.5974038 5.00317308,24.5196154 4.22634615,24.2894231 C3.49769231,24.0735577 2.96730769,23.7464423 2.52288462,23.4042308 C1.75336538,22.8116346 1.21057692,21.9705769 0.975384615,21.3731731 C0.501634615,20.1695192 0.496826923,18.8038462 0.496826923,17.94375 L0.496826923,17.94375 L0.496826923,7.05586538 L0.496826923,7.05586538 C0.496826923,6.19576923 0.501634615,4.83009615 0.975384615,3.62644231 C1.21057692,3.02903846 1.75326923,2.18788462 2.52288462,1.59538462 C2.96721154,1.25317308 3.49769231,0.926057692 4.22634615,0.710192308 C5.00307692,0.48 5.95980769,0.402211538 7.15057692,0.402211538 L7.15057692,0.402211538 L18.0384615,0.402211538 L18.0384615,0.402211538 C19.2291346,0.402211538 20.1858654,0.48 20.9626923,0.710192308 C21.6913462,0.926057692 22.2217308,1.25326923 22.6661538,1.59538462 C23.4356731,2.18798077 23.9784615,3.02903846 24.2136538,3.62644231 C24.6874038,4.83009615 24.6922115,6.19576923 24.6922115,7.05586538 L24.6922115,17.94375 C24.6922115,18.80375 24.6873077,20.1694231 24.2135577,21.3731731 Z" id="XMLID_660_"></path>
                <g id="XMLID_648_" transform="translate(3.846154, 2.884615)" fill="#FFFFFF" fill-rule="nonzero">
                    <path d="M10.5030769,11.4245192 C10.14,11.0414423 9.50230769,10.7958654 8.74951923,10.7958654 C7.99663462,10.7958654 7.35894231,11.0414423 6.99586538,11.4245192 C6.80644231,11.6244231 6.70625,11.8293269 6.67471154,12.12125 C6.61355769,12.6865385 6.64788462,13.1732692 6.71413462,13.9514423 C6.77721154,14.6929808 6.89701923,15.6818269 7.05336538,16.6889423 C7.16461538,17.4056731 7.255,17.7925 7.33730769,18.0695192 C7.47076923,18.5184615 7.96951923,18.9110577 8.74951923,18.9110577 C9.52942308,18.9110577 10.0281731,18.5183654 10.1616346,18.0695192 C10.2439423,17.7925 10.3343269,17.4056731 10.4455769,16.6889423 C10.6019231,15.6818269 10.7217308,14.6929808 10.7848077,13.9514423 C10.8510577,13.1731731 10.8853846,12.6864423 10.8242308,12.12125 C10.7926923,11.8294231 10.6925,11.6244231 10.5030769,11.4245192 Z M6.77125,8.01365385 C6.77125,9.10721154 7.65778846,9.99375 8.75134615,9.99375 C9.845,9.99375 10.7315385,9.10721154 10.7315385,8.01365385 C10.7315385,6.92 9.845,6.03346154 8.75134615,6.03346154 C7.65778846,6.03346154 6.77125,6.92 6.77125,8.01365385 Z M8.72682692,0.199195318 C4.09576923,0.212403846 0.301057692,3.96942308 0.24375,8.60019231 C0.197211538,12.3514423 2.59182692,15.5602885 5.93557692,16.7364423 C6.01673077,16.765 6.09913462,16.6975962 6.08634615,16.6125 C6.0425,16.32125 6.00115385,16.0285577 5.96317308,15.7407692 C5.94971154,15.6390385 5.88490385,15.5513462 5.79096154,15.5102885 C3.14807692,14.3556731 1.30259615,11.7050962 1.33221154,8.63480769 C1.37105769,4.60557692 4.66125,1.32076923 8.69048077,1.28817308 C12.8096154,1.25490385 16.17125,4.59605769 16.17125,8.70759615 C16.17125,11.7471154 14.3338462,14.3651923 11.7115385,15.5105769 C11.6175962,15.5516346 11.5531731,15.6396154 11.5398077,15.74125 C11.5018269,16.0289423 11.4604808,16.3215385 11.4167308,16.6125 C11.4038462,16.6975962 11.48625,16.765 11.5674038,16.7365385 C14.8792308,15.5716346 17.2599038,12.4126923 17.2599038,8.70769231 C17.2597115,4.00778846 13.4296154,0.185769231 8.72682692,0.199195318 Z M8.57307692,4.10259615 C11.1983654,4.00096154 13.3664423,6.10711538 13.3664423,8.71019231 C13.3664423,10.0340385 12.8055769,11.2292308 11.9091346,12.0709615 C11.8330769,12.1423077 11.7922115,12.2436538 11.7980769,12.3477885 C11.8159615,12.6644231 11.8094231,12.9721154 11.7883654,13.3196154 C11.7826923,13.4122115 11.8865385,13.4713462 11.9631731,13.4191346 C13.4664423,12.3918269 14.4551923,10.6644231 14.4551923,8.71019231 C14.4551923,5.4925 11.775,2.88894231 8.52990385,3.01471154 C5.51413462,3.13163462 3.09461538,5.61807692 3.05596154,8.63596154 C3.03057692,10.6207692 4.02538462,12.3791346 5.54798077,13.4193269 C5.62442308,13.4715385 5.72798077,13.4123077 5.72230769,13.3198077 C5.70115385,12.9721154 5.69471154,12.6644231 5.7125,12.3477885 C5.71836538,12.24375 5.67759615,12.1424038 5.60173077,12.0711538 C4.67730769,11.2032692 4.10961538,9.95951923 4.14576923,8.58644231 C4.20942308,6.17009615 6.15759615,4.19615385 8.57307692,4.10259615 Z" id="Shape"></path>
                </g>
            </g>
            <path d="M310,108.895803 L310,103.104197 L310.91019,103.104197 L310.91019,108.131693 L313.668064,108.131693 L313.668064,108.895803 L310,108.895803 Z M315.008719,103.998553 C314.726561,103.998553 314.48081,103.781476 314.48081,103.503618 C314.48081,103.22576 314.726561,103 315.008719,103 C315.29998,103 315.536629,103.22576 315.536629,103.503618 C315.536629,103.781476 315.29998,103.998553 315.008719,103.998553 Z M314.608236,108.895803 L314.608236,104.701881 L315.427407,104.701881 L315.427407,108.895803 L314.608236,108.895803 Z M316.303866,108.34877 L316.695247,107.775687 C316.99561,108.088278 317.578131,108.374819 318.169754,108.374819 C318.788683,108.374819 319.116351,108.131693 319.116351,107.775687 C319.116351,107.3589 318.615747,107.219971 318.05143,107.098408 C317.305074,106.93343 316.431292,106.742402 316.431292,105.839363 C316.431292,105.170767 317.032017,104.597685 318.106041,104.597685 C318.861498,104.597685 319.407612,104.858177 319.78079,105.196816 L319.416714,105.743849 C319.161861,105.448625 318.670358,105.231548 318.115143,105.231548 C317.559927,105.231548 317.214055,105.439942 317.214055,105.778582 C317.214055,106.143271 317.687354,106.264834 318.233467,106.386397 C318.998027,106.551375 319.908216,106.751085 319.908216,107.714906 C319.908216,108.435601 319.289287,109 318.133347,109 C317.396093,109 316.749859,108.782923 316.303866,108.34877 Z M322.113552,109 C321.421808,109 321.066834,108.626628 321.066834,107.966715 L321.066834,105.387844 L320.338682,105.387844 L320.338682,104.701881 L321.066834,104.701881 L321.066834,103.555716 L321.886004,103.555716 L321.886004,104.701881 L322.77799,104.701881 L322.77799,105.387844 L321.886004,105.387844 L321.886004,107.793054 C321.886004,108.088278 322.031635,108.305355 322.313794,108.305355 C322.504933,108.305355 322.677869,108.227207 322.759786,108.140376 L322.96913,108.730825 C322.796194,108.88712 322.541341,109 322.113552,109 Z M323.37229,106.794501 C323.37229,105.578871 324.291582,104.597685 325.574949,104.597685 C326.894724,104.597685 327.713895,105.578871 327.713895,106.863965 L327.713895,107.054993 L324.236971,107.054993 C324.300684,107.767004 324.846798,108.357453 325.729681,108.357453 C326.193878,108.357453 326.703584,108.183792 327.031252,107.862518 L327.413532,108.374819 C326.976641,108.782923 326.357712,109 325.647764,109 C324.337091,109 323.37229,108.114327 323.37229,106.794501 Z M325.574949,105.240232 C324.692065,105.240232 324.273378,105.917511 324.227869,106.490593 L326.912928,106.490593 C326.894724,105.934877 326.503342,105.240232 325.574949,105.240232 Z M331.666794,108.895803 L331.666794,106.212735 C331.666794,105.51809 331.293616,105.29233 330.729299,105.29233 C330.219593,105.29233 329.755396,105.587554 329.518747,105.900145 L329.518747,108.895803 L328.699576,108.895803 L328.699576,104.701881 L329.518747,104.701881 L329.518747,105.29233 C329.810007,104.95369 330.392529,104.597685 331.075171,104.597685 C332.003564,104.597685 332.485965,105.06657 332.485965,105.952243 L332.485965,108.895803 L331.666794,108.895803 Z M337.997965,109 C336.632681,109 335.777103,108.01013 335.777103,106.794501 C335.777103,105.587554 336.632681,104.597685 337.997965,104.597685 C339.372352,104.597685 340.218828,105.587554 340.218828,106.794501 C340.218828,108.01013 339.372352,109 337.997965,109 Z M337.997965,108.305355 C338.880849,108.305355 339.36325,107.593343 339.36325,106.794501 C339.36325,106.004342 338.880849,105.29233 337.997965,105.29233 C337.124184,105.29233 336.632681,106.004342 336.632681,106.794501 C336.632681,107.593343 337.124184,108.305355 337.997965,108.305355 Z M344.180829,108.895803 L344.180829,106.212735 C344.180829,105.51809 343.807652,105.29233 343.243334,105.29233 C342.733628,105.29233 342.269431,105.587554 342.032782,105.900145 L342.032782,108.895803 L341.213612,108.895803 L341.213612,104.701881 L342.032782,104.701881 L342.032782,105.29233 C342.324043,104.95369 342.906564,104.597685 343.589206,104.597685 C344.5176,104.597685 345,105.06657 345,105.952243 L345,108.895803 L344.180829,108.895803 Z" id="Listenon" fill="#FFFFFF" fill-rule="nonzero"></path>
            <path d="M119,108.895803 L119,103.104197 L119.91019,103.104197 L119.91019,108.131693 L122.668064,108.131693 L122.668064,108.895803 L119,108.895803 Z M124.008719,103.998553 C123.726561,103.998553 123.48081,103.781476 123.48081,103.503618 C123.48081,103.22576 123.726561,103 124.008719,103 C124.29998,103 124.536629,103.22576 124.536629,103.503618 C124.536629,103.781476 124.29998,103.998553 124.008719,103.998553 Z M123.608236,108.895803 L123.608236,104.701881 L124.427407,104.701881 L124.427407,108.895803 L123.608236,108.895803 Z M125.303866,108.34877 L125.695247,107.775687 C125.99561,108.088278 126.578131,108.374819 127.169754,108.374819 C127.788683,108.374819 128.116351,108.131693 128.116351,107.775687 C128.116351,107.3589 127.615747,107.219971 127.05143,107.098408 C126.305074,106.93343 125.431292,106.742402 125.431292,105.839363 C125.431292,105.170767 126.032017,104.597685 127.106041,104.597685 C127.861498,104.597685 128.407612,104.858177 128.78079,105.196816 L128.416714,105.743849 C128.161861,105.448625 127.670358,105.231548 127.115143,105.231548 C126.559927,105.231548 126.214055,105.439942 126.214055,105.778582 C126.214055,106.143271 126.687354,106.264834 127.233467,106.386397 C127.998027,106.551375 128.908216,106.751085 128.908216,107.714906 C128.908216,108.435601 128.289287,109 127.133347,109 C126.396093,109 125.749859,108.782923 125.303866,108.34877 Z M131.113552,109 C130.421808,109 130.066834,108.626628 130.066834,107.966715 L130.066834,105.387844 L129.338682,105.387844 L129.338682,104.701881 L130.066834,104.701881 L130.066834,103.555716 L130.886004,103.555716 L130.886004,104.701881 L131.77799,104.701881 L131.77799,105.387844 L130.886004,105.387844 L130.886004,107.793054 C130.886004,108.088278 131.031635,108.305355 131.313794,108.305355 C131.504933,108.305355 131.677869,108.227207 131.759786,108.140376 L131.96913,108.730825 C131.796194,108.88712 131.541341,109 131.113552,109 Z M132.37229,106.794501 C132.37229,105.578871 133.291582,104.597685 134.574949,104.597685 C135.894724,104.597685 136.713895,105.578871 136.713895,106.863965 L136.713895,107.054993 L133.236971,107.054993 C133.300684,107.767004 133.846798,108.357453 134.729681,108.357453 C135.193878,108.357453 135.703584,108.183792 136.031252,107.862518 L136.413532,108.374819 C135.976641,108.782923 135.357712,109 134.647764,109 C133.337091,109 132.37229,108.114327 132.37229,106.794501 Z M134.574949,105.240232 C133.692065,105.240232 133.273378,105.917511 133.227869,106.490593 L135.912928,106.490593 C135.894724,105.934877 135.503342,105.240232 134.574949,105.240232 Z M140.666794,108.895803 L140.666794,106.212735 C140.666794,105.51809 140.293616,105.29233 139.729299,105.29233 C139.219593,105.29233 138.755396,105.587554 138.518747,105.900145 L138.518747,108.895803 L137.699576,108.895803 L137.699576,104.701881 L138.518747,104.701881 L138.518747,105.29233 C138.810007,104.95369 139.392529,104.597685 140.075171,104.597685 C141.003564,104.597685 141.485965,105.06657 141.485965,105.952243 L141.485965,108.895803 L140.666794,108.895803 Z M146.997965,109 C145.632681,109 144.777103,108.01013 144.777103,106.794501 C144.777103,105.587554 145.632681,104.597685 146.997965,104.597685 C148.372352,104.597685 149.218828,105.587554 149.218828,106.794501 C149.218828,108.01013 148.372352,109 146.997965,109 Z M146.997965,108.305355 C147.880849,108.305355 148.36325,107.593343 148.36325,106.794501 C148.36325,106.004342 147.880849,105.29233 146.997965,105.29233 C146.124184,105.29233 145.632681,106.004342 145.632681,106.794501 C145.632681,107.593343 146.124184,108.305355 146.997965,108.305355 Z M153.180829,108.895803 L153.180829,106.212735 C153.180829,105.51809 152.807652,105.29233 152.243334,105.29233 C151.733628,105.29233 151.269431,105.587554 151.032782,105.900145 L151.032782,108.895803 L150.213612,108.895803 L150.213612,104.701881 L151.032782,104.701881 L151.032782,105.29233 C151.324043,104.95369 151.906564,104.597685 152.589206,104.597685 C153.5176,104.597685 154,105.06657 154,105.952243 L154,108.895803 L153.180829,108.895803 Z" id="Listenon-Copy" fill="#FFFFFF" fill-rule="nonzero"></path>
            <path d="M596,108.895803 L596,103.104197 L596.91019,103.104197 L596.91019,108.131693 L599.668064,108.131693 L599.668064,108.895803 L596,108.895803 Z M601.008719,103.998553 C600.726561,103.998553 600.48081,103.781476 600.48081,103.503618 C600.48081,103.22576 600.726561,103 601.008719,103 C601.29998,103 601.536629,103.22576 601.536629,103.503618 C601.536629,103.781476 601.29998,103.998553 601.008719,103.998553 Z M600.608236,108.895803 L600.608236,104.701881 L601.427407,104.701881 L601.427407,108.895803 L600.608236,108.895803 Z M602.303866,108.34877 L602.695247,107.775687 C602.99561,108.088278 603.578131,108.374819 604.169754,108.374819 C604.788683,108.374819 605.116351,108.131693 605.116351,107.775687 C605.116351,107.3589 604.615747,107.219971 604.05143,107.098408 C603.305074,106.93343 602.431292,106.742402 602.431292,105.839363 C602.431292,105.170767 603.032017,104.597685 604.106041,104.597685 C604.861498,104.597685 605.407612,104.858177 605.78079,105.196816 L605.416714,105.743849 C605.161861,105.448625 604.670358,105.231548 604.115143,105.231548 C603.559927,105.231548 603.214055,105.439942 603.214055,105.778582 C603.214055,106.143271 603.687354,106.264834 604.233467,106.386397 C604.998027,106.551375 605.908216,106.751085 605.908216,107.714906 C605.908216,108.435601 605.289287,109 604.133347,109 C603.396093,109 602.749859,108.782923 602.303866,108.34877 Z M608.113552,109 C607.421808,109 607.066834,108.626628 607.066834,107.966715 L607.066834,105.387844 L606.338682,105.387844 L606.338682,104.701881 L607.066834,104.701881 L607.066834,103.555716 L607.886004,103.555716 L607.886004,104.701881 L608.77799,104.701881 L608.77799,105.387844 L607.886004,105.387844 L607.886004,107.793054 C607.886004,108.088278 608.031635,108.305355 608.313794,108.305355 C608.504933,108.305355 608.677869,108.227207 608.759786,108.140376 L608.96913,108.730825 C608.796194,108.88712 608.541341,109 608.113552,109 Z M609.37229,106.794501 C609.37229,105.578871 610.291582,104.597685 611.574949,104.597685 C612.894724,104.597685 613.713895,105.578871 613.713895,106.863965 L613.713895,107.054993 L610.236971,107.054993 C610.300684,107.767004 610.846798,108.357453 611.729681,108.357453 C612.193878,108.357453 612.703584,108.183792 613.031252,107.862518 L613.413532,108.374819 C612.976641,108.782923 612.357712,109 611.647764,109 C610.337091,109 609.37229,108.114327 609.37229,106.794501 Z M611.574949,105.240232 C610.692065,105.240232 610.273378,105.917511 610.227869,106.490593 L612.912928,106.490593 C612.894724,105.934877 612.503342,105.240232 611.574949,105.240232 Z M617.666794,108.895803 L617.666794,106.212735 C617.666794,105.51809 617.293616,105.29233 616.729299,105.29233 C616.219593,105.29233 615.755396,105.587554 615.518747,105.900145 L615.518747,108.895803 L614.699576,108.895803 L614.699576,104.701881 L615.518747,104.701881 L615.518747,105.29233 C615.810007,104.95369 616.392529,104.597685 617.075171,104.597685 C618.003564,104.597685 618.485965,105.06657 618.485965,105.952243 L618.485965,108.895803 L617.666794,108.895803 Z M623.997965,109 C622.632681,109 621.777103,108.01013 621.777103,106.794501 C621.777103,105.587554 622.632681,104.597685 623.997965,104.597685 C625.372352,104.597685 626.218828,105.587554 626.218828,106.794501 C626.218828,108.01013 625.372352,109 623.997965,109 Z M623.997965,108.305355 C624.880849,108.305355 625.36325,107.593343 625.36325,106.794501 C625.36325,106.004342 624.880849,105.29233 623.997965,105.29233 C623.124184,105.29233 622.632681,106.004342 622.632681,106.794501 C622.632681,107.593343 623.124184,108.305355 623.997965,108.305355 Z M630.180829,108.895803 L630.180829,106.212735 C630.180829,105.51809 629.807652,105.29233 629.243334,105.29233 C628.733628,105.29233 628.269431,105.587554 628.032782,105.900145 L628.032782,108.895803 L627.213612,108.895803 L627.213612,104.701881 L628.032782,104.701881 L628.032782,105.29233 C628.324043,104.95369 628.906564,104.597685 629.589206,104.597685 C630.5176,104.597685 631,105.06657 631,105.952243 L631,108.895803 L630.180829,108.895803 Z" id="Listenon-Copy-3" fill="#FFFFFF" fill-rule="nonzero"></path>
            <path d="M798,108.895803 L798,103.104197 L798.91019,103.104197 L798.91019,108.131693 L801.668064,108.131693 L801.668064,108.895803 L798,108.895803 Z M803.008719,103.998553 C802.726561,103.998553 802.48081,103.781476 802.48081,103.503618 C802.48081,103.22576 802.726561,103 803.008719,103 C803.29998,103 803.536629,103.22576 803.536629,103.503618 C803.536629,103.781476 803.29998,103.998553 803.008719,103.998553 Z M802.608236,108.895803 L802.608236,104.701881 L803.427407,104.701881 L803.427407,108.895803 L802.608236,108.895803 Z M804.303866,108.34877 L804.695247,107.775687 C804.99561,108.088278 805.578131,108.374819 806.169754,108.374819 C806.788683,108.374819 807.116351,108.131693 807.116351,107.775687 C807.116351,107.3589 806.615747,107.219971 806.05143,107.098408 C805.305074,106.93343 804.431292,106.742402 804.431292,105.839363 C804.431292,105.170767 805.032017,104.597685 806.106041,104.597685 C806.861498,104.597685 807.407612,104.858177 807.78079,105.196816 L807.416714,105.743849 C807.161861,105.448625 806.670358,105.231548 806.115143,105.231548 C805.559927,105.231548 805.214055,105.439942 805.214055,105.778582 C805.214055,106.143271 805.687354,106.264834 806.233467,106.386397 C806.998027,106.551375 807.908216,106.751085 807.908216,107.714906 C807.908216,108.435601 807.289287,109 806.133347,109 C805.396093,109 804.749859,108.782923 804.303866,108.34877 Z M810.113552,109 C809.421808,109 809.066834,108.626628 809.066834,107.966715 L809.066834,105.387844 L808.338682,105.387844 L808.338682,104.701881 L809.066834,104.701881 L809.066834,103.555716 L809.886004,103.555716 L809.886004,104.701881 L810.77799,104.701881 L810.77799,105.387844 L809.886004,105.387844 L809.886004,107.793054 C809.886004,108.088278 810.031635,108.305355 810.313794,108.305355 C810.504933,108.305355 810.677869,108.227207 810.759786,108.140376 L810.96913,108.730825 C810.796194,108.88712 810.541341,109 810.113552,109 Z M811.37229,106.794501 C811.37229,105.578871 812.291582,104.597685 813.574949,104.597685 C814.894724,104.597685 815.713895,105.578871 815.713895,106.863965 L815.713895,107.054993 L812.236971,107.054993 C812.300684,107.767004 812.846798,108.357453 813.729681,108.357453 C814.193878,108.357453 814.703584,108.183792 815.031252,107.862518 L815.413532,108.374819 C814.976641,108.782923 814.357712,109 813.647764,109 C812.337091,109 811.37229,108.114327 811.37229,106.794501 Z M813.574949,105.240232 C812.692065,105.240232 812.273378,105.917511 812.227869,106.490593 L814.912928,106.490593 C814.894724,105.934877 814.503342,105.240232 813.574949,105.240232 Z M819.666794,108.895803 L819.666794,106.212735 C819.666794,105.51809 819.293616,105.29233 818.729299,105.29233 C818.219593,105.29233 817.755396,105.587554 817.518747,105.900145 L817.518747,108.895803 L816.699576,108.895803 L816.699576,104.701881 L817.518747,104.701881 L817.518747,105.29233 C817.810007,104.95369 818.392529,104.597685 819.075171,104.597685 C820.003564,104.597685 820.485965,105.06657 820.485965,105.952243 L820.485965,108.895803 L819.666794,108.895803 Z M825.997965,109 C824.632681,109 823.777103,108.01013 823.777103,106.794501 C823.777103,105.587554 824.632681,104.597685 825.997965,104.597685 C827.372352,104.597685 828.218828,105.587554 828.218828,106.794501 C828.218828,108.01013 827.372352,109 825.997965,109 Z M825.997965,108.305355 C826.880849,108.305355 827.36325,107.593343 827.36325,106.794501 C827.36325,106.004342 826.880849,105.29233 825.997965,105.29233 C825.124184,105.29233 824.632681,106.004342 824.632681,106.794501 C824.632681,107.593343 825.124184,108.305355 825.997965,108.305355 Z M832.180829,108.895803 L832.180829,106.212735 C832.180829,105.51809 831.807652,105.29233 831.243334,105.29233 C830.733628,105.29233 830.269431,105.587554 830.032782,105.900145 L830.032782,108.895803 L829.213612,108.895803 L829.213612,104.701881 L830.032782,104.701881 L830.032782,105.29233 C830.324043,104.95369 830.906564,104.597685 831.589206,104.597685 C832.5176,104.597685 833,105.06657 833,105.952243 L833,108.895803 L832.180829,108.895803 Z" id="Listenon-Copy-4" fill="#FFFFFF" fill-rule="nonzero"></path>
            <path d="M447,105.995658 C447,104.18958 448.377881,103 450.075785,103 C451.186979,103 451.924812,103.494935 452.422627,104.146165 L451.702573,104.554269 C451.36477,104.111433 450.76917,103.772793 450.075785,103.772793 C448.840137,103.772793 447.915624,104.693198 447.915624,105.995658 C447.915624,107.289436 448.840137,108.227207 450.075785,108.227207 C450.733612,108.227207 451.293654,107.914616 451.57812,107.654124 L451.57812,106.612156 L449.675755,106.612156 L449.675755,105.848046 L452.467075,105.848046 L452.467075,107.975398 C451.898144,108.591896 451.080305,109 450.075785,109 C448.377881,109 447,107.801737 447,105.995658 Z M453.278639,106.785818 C453.278639,105.570188 454.176484,104.589001 455.429911,104.589001 C456.718896,104.589001 457.518956,105.570188 457.518956,106.855282 L457.518956,107.04631 L454.123146,107.04631 C454.185373,107.758321 454.718746,108.34877 455.581033,108.34877 C456.0344,108.34877 456.532215,108.175109 456.852239,107.853835 L457.2256,108.366136 C456.798902,108.77424 456.194412,108.991317 455.501027,108.991317 C454.220932,108.991317 453.278639,108.105644 453.278639,106.785818 Z M455.429911,105.231548 C454.567624,105.231548 454.158705,105.908828 454.114257,106.48191 L456.736675,106.48191 C456.718896,105.926194 456.336645,105.231548 455.429911,105.231548 Z M459.663952,108.991317 C458.988346,108.991317 458.641654,108.617945 458.641654,107.958032 L458.641654,105.379161 L457.93049,105.379161 L457.93049,104.693198 L458.641654,104.693198 L458.641654,103.547033 L459.441714,103.547033 L459.441714,104.693198 L460.31289,104.693198 L460.31289,105.379161 L459.441714,105.379161 L459.441714,107.78437 C459.441714,108.079595 459.583947,108.296671 459.859523,108.296671 C460.046203,108.296671 460.215105,108.218524 460.295111,108.131693 L460.49957,108.722142 C460.330669,108.878437 460.081761,108.991317 459.663952,108.991317 Z M464.593994,108.991317 C463.918388,108.991317 463.571695,108.617945 463.571695,107.958032 L463.571695,105.379161 L462.860531,105.379161 L462.860531,104.693198 L463.571695,104.693198 L463.571695,103.547033 L464.371755,103.547033 L464.371755,104.693198 L465.242931,104.693198 L465.242931,105.379161 L464.371755,105.379161 L464.371755,107.78437 C464.371755,108.079595 464.513988,108.296671 464.789564,108.296671 C464.976245,108.296671 465.145146,108.218524 465.225152,108.131693 L465.429612,108.722142 C465.26071,108.878437 465.011803,108.991317 464.593994,108.991317 Z M468.988048,108.88712 L468.988048,106.186686 C468.988048,105.492041 468.623576,105.283647 468.072424,105.283647 C467.574609,105.283647 467.121242,105.578871 466.890113,105.891462 L466.890113,108.88712 L466.090053,108.88712 L466.090053,103.095514 L466.890113,103.095514 L466.890113,105.283647 C467.174579,104.945007 467.7524,104.589001 468.410227,104.589001 C469.325851,104.589001 469.788107,105.040521 469.788107,105.926194 L469.788107,108.88712 L468.988048,108.88712 Z M470.759683,106.785818 C470.759683,105.570188 471.657528,104.589001 472.910955,104.589001 C474.19994,104.589001 475,105.570188 475,106.855282 L475,107.04631 L471.604191,107.04631 C471.666418,107.758321 472.199791,108.34877 473.062077,108.34877 C473.515445,108.34877 474.01326,108.175109 474.333284,107.853835 L474.706645,108.366136 C474.279946,108.77424 473.675457,108.991317 472.982071,108.991317 C471.701976,108.991317 470.759683,108.105644 470.759683,106.785818 Z M472.910955,105.231548 C472.048668,105.231548 471.639749,105.908828 471.595301,106.48191 L474.217719,106.48191 C474.19994,105.926194 473.817689,105.231548 472.910955,105.231548 Z" id="Getthe" fill="#FFFFFF" fill-rule="nonzero"></path>
            <path d="M126.709129,125.085427 L125.61113,121.819095 L121.036134,121.819095 L119.938135,125.085427 L118,125.085427 L122.333769,113 L124.346768,113 L128.680537,125.085427 L126.709129,125.085427 Z M123.298677,115.01005 L121.51027,120.311558 L125.136994,120.311558 L123.348587,115.01005 L123.298677,115.01005 Z M134.265046,116.132328 C136.485999,116.132328 137.949998,117.891122 137.949998,120.680067 C137.949998,123.469012 136.494317,125.236181 134.298319,125.236181 C133.042275,125.236181 132.044094,124.616415 131.545003,123.636516 L131.503412,123.636516 L131.503412,128 L129.706686,128 L129.706686,116.274707 L131.445185,116.274707 L131.445185,117.79062 L131.478458,117.79062 C131.994184,116.777219 133.000684,116.132328 134.265046,116.132328 Z M133.79091,123.703518 C135.213318,123.703518 136.103363,122.530988 136.103363,120.680067 C136.103363,118.837521 135.213318,117.656616 133.79091,117.656616 C132.418411,117.656616 131.495094,118.862647 131.495094,120.680067 C131.495094,122.514238 132.410093,123.703518 133.79091,123.703518 Z M143.809007,116.132328 C146.02996,116.132328 147.493959,117.891122 147.493959,120.680067 C147.493959,123.469012 146.038278,125.236181 143.84228,125.236181 C142.586235,125.236181 141.588054,124.616415 141.088964,123.636516 L141.047373,123.636516 L141.047373,128 L139.250647,128 L139.250647,116.274707 L140.989146,116.274707 L140.989146,117.79062 L141.022418,117.79062 C141.538145,116.777219 142.544644,116.132328 143.809007,116.132328 Z M143.334871,123.703518 C144.757279,123.703518 145.647324,122.530988 145.647324,120.680067 C145.647324,118.837521 144.757279,117.656616 143.334871,117.656616 C141.962372,117.656616 141.039055,118.862647 141.039055,120.680067 C141.039055,122.514238 141.954054,123.703518 143.334871,123.703518 Z M148.861153,125.085427 L148.861153,113 L150.657879,113 L150.657879,125.085427 L148.861153,125.085427 Z M156.084343,117.572864 C154.828299,117.572864 153.946572,118.536013 153.855073,119.867672 L158.230433,119.867672 C158.188842,118.519263 157.340388,117.572864 156.084343,117.572864 Z M158.222114,122.497487 L159.92734,122.497487 C159.677795,124.105528 158.163887,125.252931 156.159207,125.252931 C153.588891,125.252931 152.033392,123.502513 152.033392,120.721943 C152.033392,117.958124 153.613845,116.115578 156.084343,116.115578 C158.513251,116.115578 160.027158,117.840871 160.027158,120.512563 L160.027158,121.132328 L153.846754,121.132328 L153.846754,121.241206 C153.846754,122.773869 154.761754,123.78727 156.200798,123.78727 C157.223933,123.78727 157.980887,123.268007 158.222114,122.497487 Z M164.924274,113 L169.424406,113 C171.753495,113 173.375539,114.616415 173.375539,116.969849 C173.375539,119.331658 171.720222,120.956449 169.366179,120.956449 L166.787545,120.956449 L166.787545,125.085427 L164.924274,125.085427 L164.924274,113 Z M166.787545,114.582915 L166.787545,119.38191 L168.925316,119.38191 C170.54736,119.38191 171.470677,118.502513 171.470677,116.978224 C171.470677,115.453936 170.54736,114.582915 168.933634,114.582915 L166.787545,114.582915 Z M178.094959,125.252931 C175.591188,125.252931 173.944189,123.519263 173.944189,120.680067 C173.944189,117.849246 175.599506,116.115578 178.094959,116.115578 C180.590411,116.115578 182.245728,117.849246 182.245728,120.680067 C182.245728,123.519263 180.598729,125.252931 178.094959,125.252931 Z M178.094959,123.762144 C179.509048,123.762144 180.415729,122.639866 180.415729,120.680067 C180.415729,118.728643 179.50073,117.606365 178.094959,117.606365 C176.689187,117.606365 175.774188,118.728643 175.774188,120.680067 C175.774188,122.639866 176.689187,123.762144 178.094959,123.762144 Z M186.840375,125.236181 C184.62774,125.236181 183.163741,123.460637 183.163741,120.680067 C183.163741,117.899497 184.62774,116.132328 186.823738,116.132328 C188.079783,116.132328 189.077964,116.768844 189.568736,117.740369 L189.602009,117.740369 L189.602009,113 L191.407053,113 L191.407053,125.085427 L189.660236,125.085427 L189.660236,123.586265 L189.626963,123.586265 C189.111236,124.59129 188.113055,125.236181 186.840375,125.236181 Z M187.314511,117.656616 C185.892103,117.656616 185.002058,118.829146 185.002058,120.680067 C185.002058,122.539363 185.892103,123.703518 187.314511,123.703518 C188.695328,123.703518 189.618645,122.522613 189.618645,120.680067 C189.618645,118.854271 188.695328,117.656616 187.314511,117.656616 Z M200.676514,119.306533 L198.96297,119.306533 C198.77997,118.368509 198.081243,117.623116 196.908381,117.623116 C195.519245,117.623116 194.604246,118.78727 194.604246,120.680067 C194.604246,122.61474 195.527564,123.737018 196.925017,123.737018 C198.031334,123.737018 198.755015,123.125628 198.96297,122.103853 L200.69315,122.103853 C200.501832,123.979899 199.012879,125.252931 196.908381,125.252931 C194.40461,125.252931 192.774248,123.527638 192.774248,120.680067 C192.774248,117.882747 194.40461,116.115578 196.891744,116.115578 C199.14597,116.115578 200.518469,117.572864 200.676514,119.306533 Z M204.946752,123.80402 C206.202796,123.80402 207.184341,122.932998 207.184341,121.785595 L207.184341,121.090452 L205.029933,121.224456 C203.956889,121.299832 203.349662,121.777219 203.349662,122.530988 C203.349662,123.301508 203.981843,123.80402 204.946752,123.80402 Z M204.447661,125.236181 C202.734117,125.236181 201.5363,124.164154 201.5363,122.58124 C201.5363,121.040201 202.709163,120.093802 204.788706,119.976549 L207.184341,119.834171 L207.184341,119.155779 C207.184341,118.175879 206.527205,117.589615 205.429206,117.589615 C204.389434,117.589615 203.740616,118.092127 203.582571,118.879397 L201.885663,118.879397 C201.985481,117.288107 203.333026,116.115578 205.495751,116.115578 C207.616886,116.115578 208.972748,117.246231 208.972748,119.0134 L208.972748,125.085427 L207.250886,125.085427 L207.250886,123.636516 L207.209295,123.636516 C206.701887,124.616415 205.595569,125.236181 204.447661,125.236181 Z M210.473034,118.770519 C210.473034,117.19598 211.837215,116.115578 213.850213,116.115578 C215.888166,116.115578 217.210756,117.254606 217.268983,118.879397 L215.580393,118.879397 C215.480575,118.025126 214.856712,117.489112 213.850213,117.489112 C212.876987,117.489112 212.228169,117.966499 212.228169,118.670017 C212.228169,119.222781 212.627441,119.599665 213.575713,119.81742 L214.998121,120.144054 C216.786529,120.562814 217.468619,121.266332 217.468619,122.539363 C217.468619,124.147404 215.979666,125.252931 213.916758,125.252931 C211.729078,125.252931 210.414807,124.172529 210.248443,122.497487 L212.028533,122.497487 C212.194896,123.41876 212.818759,123.871022 213.916758,123.871022 C214.998121,123.871022 215.663575,123.41876 215.663575,122.698492 C215.663575,122.128978 215.339166,121.79397 214.382576,121.576214 L212.960168,121.241206 C211.296533,120.855946 210.473034,120.051926 210.473034,118.770519 Z M219.301632,114.18928 L221.106676,114.18928 L221.106676,116.274707 L222.770311,116.274707 L222.770311,117.706868 L221.106676,117.706868 L221.106676,122.564489 C221.106676,123.326633 221.439403,123.670017 222.171402,123.670017 C222.354402,123.670017 222.645538,123.653266 222.761993,123.628141 L222.761993,125.060302 C222.562356,125.110553 222.163084,125.144054 221.763812,125.144054 C219.99204,125.144054 219.301632,124.465662 219.301632,122.765494 L219.301632,117.706868 L218.028951,117.706868 L218.028951,116.274707 L219.301632,116.274707 L219.301632,114.18928 Z M224.004415,118.770519 C224.004415,117.19598 225.368596,116.115578 227.381594,116.115578 C229.419547,116.115578 230.742137,117.254606 230.800364,118.879397 L229.111774,118.879397 C229.011956,118.025126 228.388093,117.489112 227.381594,117.489112 C226.408367,117.489112 225.75955,117.966499 225.75955,118.670017 C225.75955,119.222781 226.158822,119.599665 227.107094,119.81742 L228.529502,120.144054 C230.31791,120.562814 231,121.266332 231,122.539363 C231,124.147404 229.511047,125.252931 227.448139,125.252931 C225.260459,125.252931 223.946188,124.172529 223.779824,122.497487 L225.559914,122.497487 C225.726277,123.41876 226.35014,123.871022 227.448139,123.871022 C228.529502,123.871022 229.194956,123.41876 229.194956,122.698492 C229.194956,122.128978 228.870547,121.79397 227.913957,121.576214 L226.491549,121.241206 C224.827914,120.855946 224.004415,120.051926 224.004415,118.770519 Z" id="ApplePodcasts" fill="#FFFFFF" fill-rule="nonzero"></path>
            <path d="M448.850669,114.706237 L448.850669,118.8833 L451.444911,118.8833 C452.874222,118.8833 453.692152,118.118712 453.692152,116.790744 C453.692152,115.49497 452.824651,114.706237 451.395339,114.706237 L448.850669,114.706237 Z M448.850669,120.34004 L448.850669,124.806841 L447,124.806841 L447,113.193159 L451.618411,113.193159 C454.0722,113.193159 455.600654,114.577465 455.600654,116.742455 C455.600654,118.311871 454.741415,119.583501 453.287318,120.05835 L455.955917,124.806841 L453.824343,124.806841 L451.395339,120.34004 L448.850669,120.34004 Z M456.768578,121.619718 L458.569676,121.619718 C458.734914,122.770624 459.858535,123.462777 461.444823,123.462777 C462.956753,123.462777 464.039064,122.706237 464.039064,121.668008 C464.039064,120.7666 463.411159,120.203219 461.816609,119.865191 L460.519488,119.599598 C458.131794,119.108652 457.049483,118.030181 457.049483,116.356137 C457.049483,114.368209 458.842319,113 461.378727,113 C463.906874,113 465.633614,114.392354 465.691447,116.420523 L463.898612,116.420523 C463.782945,115.253521 462.799777,114.537223 461.353942,114.537223 C459.957678,114.537223 458.9332,115.197183 458.9332,116.259557 C458.9332,117.104628 459.544582,117.668008 461.08956,117.98994 L462.394943,118.255533 C464.890042,118.770624 465.914519,119.744467 465.914519,121.434608 C465.914519,123.623742 464.146469,125 461.370465,125 C458.677081,125 456.884245,123.688129 456.768578,121.619718 Z M466.958514,121.619718 L468.759612,121.619718 C468.92485,122.770624 470.048471,123.462777 471.634759,123.462777 C473.146689,123.462777 474.229,122.706237 474.229,121.668008 C474.229,120.7666 473.601095,120.203219 472.006545,119.865191 L470.709424,119.599598 C468.32173,119.108652 467.239419,118.030181 467.239419,116.356137 C467.239419,114.368209 469.032255,113 471.568663,113 C474.09681,113 475.82355,114.392354 475.881383,116.420523 L474.088548,116.420523 C473.972881,115.253521 472.989713,114.537223 471.543878,114.537223 C470.147614,114.537223 469.123136,115.197183 469.123136,116.259557 C469.123136,117.104628 469.734518,117.668008 471.279496,117.98994 L472.584879,118.255533 C475.079978,118.770624 476.104455,119.744467 476.104455,121.434608 C476.104455,123.623742 474.336405,125 471.560401,125 C468.867017,125 467.074181,123.688129 466.958514,121.619718 Z M482.885214,124.806841 L481.034545,124.806841 L481.034545,113.193159 L488.478531,113.193159 L488.478531,114.746479 L482.885214,114.746479 L482.885214,118.424547 L488.007602,118.424547 L488.007602,119.945674 L482.885214,119.945674 L482.885214,124.806841 Z M493.132983,117.587525 C491.885434,117.587525 491.009671,118.513078 490.91879,119.792757 L495.264557,119.792757 C495.223248,118.496982 494.380532,117.587525 493.132983,117.587525 Z M495.256295,122.31992 L496.949988,122.31992 C496.702131,123.865191 495.198462,124.967807 493.20734,124.967807 C490.654408,124.967807 489.10943,123.285714 489.10943,120.613682 C489.10943,117.957746 490.679194,116.187123 493.132983,116.187123 C495.545463,116.187123 497.049131,117.84507 497.049131,120.412475 L497.049131,121.008048 L490.910528,121.008048 L490.910528,121.112676 C490.910528,122.585513 491.819338,123.559356 493.24865,123.559356 C494.264866,123.559356 495.0167,123.060362 495.256295,122.31992 Z M501.984489,117.587525 C500.736939,117.587525 499.861176,118.513078 499.770295,119.792757 L504.116063,119.792757 C504.074753,118.496982 503.232038,117.587525 501.984489,117.587525 Z M504.107801,122.31992 L505.801494,122.31992 C505.553636,123.865191 504.049968,124.967807 502.058846,124.967807 C499.505914,124.967807 497.960936,123.285714 497.960936,120.613682 C497.960936,117.957746 499.5307,116.187123 501.984489,116.187123 C504.396968,116.187123 505.900637,117.84507 505.900637,120.412475 L505.900637,121.008048 L499.762033,121.008048 L499.762033,121.112676 C499.762033,122.585513 500.670844,123.559356 502.100156,123.559356 C503.116371,123.559356 503.868206,123.060362 504.107801,122.31992 Z M510.464208,124.95171 C508.266539,124.95171 506.812441,123.245473 506.812441,120.573441 C506.812441,117.901408 508.266539,116.203219 510.447684,116.203219 C511.695234,116.203219 512.686664,116.814889 513.174117,117.748491 L513.207164,117.748491 L513.207164,113.193159 L515,113.193159 L515,124.806841 L513.264998,124.806841 L513.264998,123.366197 L513.23195,123.366197 C512.719711,124.331992 511.728281,124.95171 510.464208,124.95171 Z M510.935137,117.668008 C509.52235,117.668008 508.638325,118.794769 508.638325,120.573441 C508.638325,122.360161 509.52235,123.478873 510.935137,123.478873 C512.306615,123.478873 513.223688,122.344064 513.223688,120.573441 C513.223688,118.818913 512.306615,117.668008 510.935137,117.668008 Z" id="RSSFeed" fill="#FFFFFF" fill-rule="nonzero"></path>
            <path d="M420.228615,119.538462 C422.016935,119.538462 423.461538,120.996182 423.461538,122.772658 C423.461464,124.558597 422.016861,126 420.228615,126 C418.447277,126 417,124.558523 417,122.772658 C417,120.996182 418.447277,119.538462 420.228615,119.538462 Z M417,110.307692 C425.650159,110.307692 432.692308,117.346554 432.692308,125.999927 L432.692308,125.999927 L428.114842,126 C428.114842,123.023142 426.957081,120.221017 424.858566,118.124154 C422.757867,116.022851 419.967491,114.862965 417,114.862965 L417,114.862965 Z M417,102 C430.232408,102 441,112.77015 441,126 L441,126 L436.384488,125.999853 C436.384488,115.305466 427.685772,106.601942 417,106.601942 L417,106.601942 Z" id="Path" fill="#F5A623"></path>
            <g id="_logo_Podcasts_192px" transform="translate(565.000000, 101.000000)">
                <polygon id="Shape" fill="#FAB908" points="10.9375 7.95454545 10.9375 11.7428977 10.9375 13.2571023 10.9375 17.0454545 14.0625 17.0454545 14.0625 13.2571023 14.0625 11.7428977 14.0625 7.95454545"></polygon>
                <circle id="Oval" fill="#0066D9" cx="1.5625" cy="11.6477273" r="1.5625"></circle>
                <circle id="Oval" fill="#0066D9" cx="1.5625" cy="13.3522727" r="1.5625"></circle>
                <rect id="Rectangle-path" fill="#0066D9" x="0" y="11.6477273" width="3.125" height="1.70454545"></rect>
                <circle id="Oval" fill="#4285F4" cx="23.4375" cy="13.3522727" r="1.5625"></circle>
                <circle id="Oval" fill="#4285F4" cx="23.4375" cy="11.6477273" r="1.5625"></circle>
                <rect id="Rectangle-path" fill="#4285F4" transform="translate(23.437500, 12.500000) rotate(180.000000) translate(-23.437500, -12.500000) " x="21.875" y="11.6477273" width="3.125" height="1.70454545"></rect>
                <circle id="Oval" fill="#EA4335" cx="6.96022727" cy="16.7613636" r="1.5625"></circle>
                <circle id="Oval" fill="#EA4335" cx="6.96022727" cy="18.4659091" r="1.5625"></circle>
                <rect id="Rectangle-path" fill="#EA4335" x="5.39772727" y="16.7613636" width="3.125" height="1.70454545"></rect>
                <circle id="Oval" fill="#EA4335" cx="6.96022727" cy="6.53409091" r="1.5625"></circle>
                <circle id="Oval" fill="#EA4335" cx="6.96022727" cy="12.0738636" r="1.5625"></circle>
                <rect id="Rectangle-path" fill="#EA4335" x="5.39772727" y="6.53409091" width="3.125" height="5.57528409"></rect>
                <circle id="Oval" fill="#34A853" cx="18.0397727" cy="8.23863636" r="1.5625"></circle>
                <circle id="Oval" fill="#34A853" cx="18.0397727" cy="6.53409091" r="1.5625"></circle>
                <rect id="Rectangle-path" fill="#34A853" transform="translate(18.039773, 7.386364) rotate(180.000000) translate(-18.039773, -7.386364) " x="16.4772727" y="6.53409091" width="3.125" height="1.70454545"></rect>
                <circle id="Oval" fill="#FAB908" cx="12.5" cy="3.26704545" r="1.5625"></circle>
                <circle id="Oval" fill="#FAB908" cx="12.5" cy="1.5625" r="1.5625"></circle>
                <rect id="Rectangle-path" fill="#FAB908" transform="translate(12.500000, 2.414773) rotate(180.000000) translate(-12.500000, -2.414773) " x="10.9375" y="1.5625" width="3.125" height="1.70454545"></rect>
                <circle id="Oval" fill="#FAB908" cx="12.5" cy="23.4375" r="1.5625"></circle>
                <circle id="Oval" fill="#FAB908" cx="12.5" cy="21.7329545" r="1.5625"></circle>
                <rect id="Rectangle-path" fill="#FAB908" transform="translate(12.500000, 22.585227) rotate(180.000000) translate(-12.500000, -22.585227) " x="10.9375" y="21.7329545" width="3.125" height="1.70454545"></rect>
                <circle id="Oval" fill="#34A853" cx="18.0397727" cy="18.4659091" r="1.5625"></circle>
                <circle id="Oval" fill="#34A853" cx="18.0397727" cy="12.9261364" r="1.5625"></circle>
                <rect id="Rectangle-path" fill="#34A853" transform="translate(18.039773, 15.696023) rotate(180.000000) translate(-18.039773, -15.696023) " x="16.4772727" y="12.9261364" width="3.125" height="5.53977273"></rect>
                <circle id="Oval" fill="#FAB908" cx="12.5" cy="7.95454545" r="1.5625"></circle>
                <circle id="Oval" fill="#FAB908" cx="12.5" cy="17.0454545" r="1.5625"></circle>
            </g>
            <path d="M606.729319,119.980676 C606.729319,123.128824 604.81544,125.004831 601.575932,125.004831 C598.154149,125.004831 596,122.677939 596,118.950081 C596,115.286634 598.145864,113 601.551076,113 C604.210621,113 606.223922,114.529791 606.638182,116.848631 L604.732588,116.848631 C604.285188,115.407407 603.116977,114.5781 601.559361,114.5781 C599.272649,114.5781 597.897308,116.204509 597.897308,118.933977 C597.897308,121.711755 599.314075,123.426731 601.592502,123.426731 C603.531236,123.426731 604.873437,122.219002 604.898292,120.455717 L604.898292,120.254428 L601.807917,120.254428 L601.807917,118.797101 L606.729319,118.797101 L606.729319,119.980676 Z M611.993415,124.972625 C609.499574,124.972625 607.859106,123.305958 607.859106,120.57649 C607.859106,117.855072 609.507859,116.188406 611.993415,116.188406 C614.478972,116.188406 616.127724,117.855072 616.127724,120.57649 C616.127724,123.305958 614.487257,124.972625 611.993415,124.972625 Z M611.993415,123.539452 C613.401897,123.539452 614.304983,122.460548 614.304983,120.57649 C614.304983,118.700483 613.393612,117.621578 611.993415,117.621578 C610.593219,117.621578 609.681848,118.700483 609.681848,120.57649 C609.681848,122.460548 610.593219,123.539452 611.993415,123.539452 Z M621.176406,124.972625 C618.682564,124.972625 617.042097,123.305958 617.042097,120.57649 C617.042097,117.855072 618.69085,116.188406 621.176406,116.188406 C623.661962,116.188406 625.310715,117.855072 625.310715,120.57649 C625.310715,123.305958 623.670248,124.972625 621.176406,124.972625 Z M621.176406,123.539452 C622.584888,123.539452 623.487973,122.460548 623.487973,120.57649 C623.487973,118.700483 622.576603,117.621578 621.176406,117.621578 C619.776209,117.621578 618.864838,118.700483 618.864838,120.57649 C618.864838,122.460548 619.776209,123.539452 621.176406,123.539452 Z M630.326256,123.402576 C631.726453,123.402576 632.646109,122.299517 632.646109,120.552335 C632.646109,118.813205 631.726453,117.669887 630.326256,117.669887 C628.950915,117.669887 628.056114,118.78905 628.056114,120.552335 C628.056114,122.323671 628.950915,123.402576 630.326256,123.402576 Z M630.342826,128 C628.2881,128 626.763625,126.937198 626.539925,125.47182 L628.337811,125.47182 C628.594652,126.180354 629.39003,126.647343 630.409108,126.647343 C631.809305,126.647343 632.637823,125.874396 632.637823,124.714976 L632.637823,123.322061 L632.604683,123.322061 C632.115856,124.239936 631.088493,124.8438 629.845715,124.8438 C627.658425,124.8438 626.225088,123.185185 626.225088,120.544283 C626.225088,117.879227 627.65014,116.204509 629.887141,116.204509 C631.121634,116.204509 632.132427,116.808374 632.662679,117.79066 L632.69582,117.79066 L632.69582,116.341385 L634.435709,116.341385 L634.435709,124.658615 C634.435709,126.679549 632.828383,128 630.342826,128 Z M636.186886,124.811594 L636.186886,113.193237 L637.976487,113.193237 L637.976487,124.811594 L636.186886,124.811594 Z M643.381432,117.589372 C642.130368,117.589372 641.252138,118.515298 641.161001,119.795491 L645.51901,119.795491 C645.477584,118.499195 644.632495,117.589372 643.381432,117.589372 Z M645.510725,122.323671 L647.209188,122.323671 C646.960633,123.869565 645.452729,124.972625 643.455998,124.972625 C640.895875,124.972625 639.346545,123.289855 639.346545,120.616747 C639.346545,117.959742 640.920731,116.188406 643.381432,116.188406 C645.800706,116.188406 647.308611,117.847021 647.308611,120.415459 L647.308611,121.011272 L641.152716,121.011272 L641.152716,121.115942 C641.152716,122.589372 642.064087,123.563607 643.497424,123.563607 C644.516502,123.563607 645.270454,123.064412 645.510725,122.323671 Z M652.186306,113.193237 L656.668592,113.193237 C658.988445,113.193237 660.604057,114.747182 660.604057,117.009662 C660.604057,119.280193 658.955304,120.84219 656.610596,120.84219 L654.042188,120.84219 L654.042188,124.811594 L652.186306,124.811594 L652.186306,113.193237 Z M654.042188,114.714976 L654.042188,119.328502 L656.171481,119.328502 C657.787093,119.328502 658.706749,118.483092 658.706749,117.017713 C658.706749,115.552335 657.787093,114.714976 656.179766,114.714976 L654.042188,114.714976 Z M665.304761,124.972625 C662.810919,124.972625 661.170452,123.305958 661.170452,120.57649 C661.170452,117.855072 662.819204,116.188406 665.304761,116.188406 C667.790317,116.188406 669.43907,117.855072 669.43907,120.57649 C669.43907,123.305958 667.798602,124.972625 665.304761,124.972625 Z M665.304761,123.539452 C666.713243,123.539452 667.616328,122.460548 667.616328,120.57649 C667.616328,118.700483 666.704957,117.621578 665.304761,117.621578 C663.904564,117.621578 662.993193,118.700483 662.993193,120.57649 C662.993193,122.460548 663.904564,123.539452 665.304761,123.539452 Z M674.015496,124.956522 C671.811636,124.956522 670.353442,123.249597 670.353442,120.57649 C670.353442,117.903382 671.811636,116.204509 673.998925,116.204509 C675.249989,116.204509 676.244211,116.816425 676.733037,117.750403 L676.766178,117.750403 L676.766178,113.193237 L678.564064,113.193237 L678.564064,124.811594 L676.824174,124.811594 L676.824174,123.37037 L676.791034,123.37037 C676.277352,124.336554 675.283129,124.956522 674.015496,124.956522 Z M674.487751,117.669887 C673.070984,117.669887 672.184469,118.797101 672.184469,120.57649 C672.184469,122.363929 673.070984,123.483092 674.487751,123.483092 C675.863093,123.483092 676.782748,122.347826 676.782748,120.57649 C676.782748,118.821256 675.863093,117.669887 674.487751,117.669887 Z M687.796766,119.256039 L686.090017,119.256039 C685.907743,118.354267 685.211787,117.637681 684.043575,117.637681 C682.659949,117.637681 681.748578,118.756844 681.748578,120.57649 C681.748578,122.436393 682.668234,123.515298 684.060146,123.515298 C685.162076,123.515298 685.882887,122.927536 686.090017,121.94525 L687.813336,121.94525 C687.622777,123.748792 686.139728,124.972625 684.043575,124.972625 C681.549734,124.972625 679.925837,123.31401 679.925837,120.57649 C679.925837,117.887279 681.549734,116.188406 684.027005,116.188406 C686.272291,116.188406 687.639347,117.589372 687.796766,119.256039 Z M692.050069,123.57971 C693.301133,123.57971 694.278785,122.742351 694.278785,121.639291 L694.278785,120.971014 L692.132921,121.099839 C691.064132,121.172303 690.459313,121.63124 690.459313,122.355878 C690.459313,123.096618 691.088988,123.57971 692.050069,123.57971 Z M691.552958,124.956522 C689.846209,124.956522 688.653142,123.925926 688.653142,122.404187 C688.653142,120.922705 689.821354,120.012882 691.892651,119.900161 L694.278785,119.763285 L694.278785,119.111111 C694.278785,118.169082 693.624255,117.605475 692.53061,117.605475 C691.494962,117.605475 690.848717,118.088567 690.691299,118.845411 L689.00112,118.845411 C689.100542,117.31562 690.442743,116.188406 692.596892,116.188406 C694.709615,116.188406 696.0601,117.275362 696.0601,118.974235 L696.0601,124.811594 L694.345067,124.811594 L694.345067,123.41868 L694.303641,123.41868 C693.798244,124.360709 692.696314,124.956522 691.552958,124.956522 Z M697.554436,118.740741 C697.554436,117.227053 698.913207,116.188406 700.918223,116.188406 C702.948094,116.188406 704.265439,117.283414 704.323435,118.845411 L702.641542,118.845411 C702.54212,118.024155 701.920731,117.508857 700.918223,117.508857 C699.948856,117.508857 699.302611,117.967794 699.302611,118.644122 C699.302611,119.175523 699.7003,119.537842 700.644812,119.747182 L702.061579,120.061192 C703.842894,120.463768 704.52228,121.140097 704.52228,122.363929 C704.52228,123.909823 703.039231,124.972625 700.984504,124.972625 C698.8055,124.972625 697.49644,123.933977 697.330736,122.323671 L699.103767,122.323671 C699.26947,123.20934 699.89086,123.644122 700.984504,123.644122 C702.061579,123.644122 702.724394,123.20934 702.724394,122.516908 C702.724394,121.969404 702.401272,121.647343 701.448475,121.438003 L700.031708,121.115942 C698.37467,120.745572 697.554436,119.972625 697.554436,118.740741 Z M706.348023,114.336554 L708.145909,114.336554 L708.145909,116.341385 L709.802947,116.341385 L709.802947,117.718196 L708.145909,117.718196 L708.145909,122.388084 C708.145909,123.120773 708.477317,123.450886 709.206413,123.450886 C709.388687,123.450886 709.678669,123.434783 709.794662,123.410628 L709.794662,124.78744 C709.595817,124.835749 709.198128,124.867955 708.800439,124.867955 C707.035694,124.867955 706.348023,124.215781 706.348023,122.58132 L706.348023,117.718196 L705.080389,117.718196 L705.080389,116.341385 L706.348023,116.341385 L706.348023,114.336554 Z M711.032157,118.740741 C711.032157,117.227053 712.390928,116.188406 714.395943,116.188406 C716.425814,116.188406 717.743159,117.283414 717.801155,118.845411 L716.119262,118.845411 C716.01984,118.024155 715.398451,117.508857 714.395943,117.508857 C713.426576,117.508857 712.780331,117.967794 712.780331,118.644122 C712.780331,119.175523 713.17802,119.537842 714.122532,119.747182 L715.539299,120.061192 C717.320615,120.463768 718,121.140097 718,122.363929 C718,123.909823 716.516951,124.972625 714.462225,124.972625 C712.28322,124.972625 710.97416,123.933977 710.808457,122.323671 L712.581487,122.323671 C712.747191,123.20934 713.36858,123.644122 714.462225,123.644122 C715.539299,123.644122 716.202114,123.20934 716.202114,122.516908 C716.202114,121.969404 715.878992,121.647343 714.926195,121.438003 L713.509428,121.115942 C711.85239,120.745572 711.032157,119.972625 711.032157,118.740741 Z" id="GooglePodcasts" fill="#FFFFFF" fill-rule="nonzero"></path>
            <path d="M798,121.626506 L799.805507,121.626506 C799.97115,122.7751 801.097521,123.465863 802.687692,123.465863 C804.203324,123.465863 805.288284,122.710843 805.288284,121.674699 C805.288284,120.7751 804.658842,120.212851 803.060388,119.875502 L801.760092,119.610442 C799.366553,119.120482 798.281593,118.044177 798.281593,116.373494 C798.281593,114.389558 800.078817,113.024096 802.621435,113.024096 C805.15577,113.024096 806.886738,114.413655 806.944713,116.437751 L805.147488,116.437751 C805.031538,115.273092 804.045963,114.558233 802.596588,114.558233 C801.196907,114.558233 800.169921,115.216867 800.169921,116.277108 C800.169921,117.120482 800.782799,117.682731 802.33156,118.004016 L803.640138,118.269076 C806.141345,118.783133 807.16833,119.75502 807.16833,121.441767 C807.16833,123.626506 805.395952,125 802.613153,125 C799.913175,125 798.11595,123.690763 798,121.626506 Z M809.05966,114.35743 L810.856884,114.35743 L810.856884,116.35743 L812.513312,116.35743 L812.513312,117.730924 L810.856884,117.730924 L810.856884,122.389558 C810.856884,123.120482 811.18817,123.449799 811.916998,123.449799 C812.099205,123.449799 812.38908,123.433735 812.50503,123.409639 L812.50503,124.783133 C812.306259,124.831325 811.908716,124.863454 811.511173,124.863454 C809.747077,124.863454 809.05966,124.212851 809.05966,122.582329 L809.05966,117.730924 L807.792492,117.730924 L807.792492,116.35743 L809.05966,116.35743 L809.05966,114.35743 Z M813.957406,124.807229 L813.957406,116.35743 L815.746349,116.35743 L815.746349,124.807229 L813.957406,124.807229 Z M814.851877,114.991968 C814.28041,114.991968 813.81661,114.542169 813.81661,113.995984 C813.81661,113.441767 814.28041,113 814.851877,113 C815.423345,113 815.878863,113.441767 815.878863,113.995984 C815.878863,114.542169 815.423345,114.991968 814.851877,114.991968 Z M818.018656,114.35743 L819.815881,114.35743 L819.815881,116.35743 L821.472309,116.35743 L821.472309,117.730924 L819.815881,117.730924 L819.815881,122.389558 C819.815881,123.120482 820.147167,123.449799 820.875995,123.449799 C821.058202,123.449799 821.348077,123.433735 821.464027,123.409639 L821.464027,124.783133 C821.265256,124.831325 820.867713,124.863454 820.47017,124.863454 C818.706074,124.863454 818.018656,124.212851 818.018656,122.582329 L818.018656,117.730924 L816.751489,117.730924 L816.751489,116.35743 L818.018656,116.35743 L818.018656,114.35743 Z M830.130148,119.26506 L828.424027,119.26506 C828.24182,118.365462 827.54612,117.650602 826.378338,117.650602 C824.99522,117.650602 824.084185,118.767068 824.084185,120.582329 C824.084185,122.437751 825.003503,123.514056 826.394902,123.514056 C827.496427,123.514056 828.216973,122.927711 828.424027,121.947791 L830.146712,121.947791 C829.956223,123.746988 828.47372,124.967871 826.378338,124.967871 C823.885413,124.967871 822.262114,123.313253 822.262114,120.582329 C822.262114,117.899598 823.885413,116.204819 826.361774,116.204819 C828.606234,116.204819 829.972787,117.60241 830.130148,119.26506 Z M831.400317,124.807229 L831.400317,113.216867 L833.172695,113.216867 L833.172695,117.771084 L833.214106,117.771084 C833.69447,116.783133 834.646916,116.212851 835.972059,116.212851 C837.885233,116.212851 839.028169,117.449799 839.028169,119.361446 L839.028169,124.807229 L837.230944,124.807229 L837.230944,119.698795 C837.230944,118.453815 836.584937,117.706827 835.326052,117.706827 C834.000909,117.706827 833.189259,118.590361 833.189259,119.923695 L833.189259,124.807229 L831.400317,124.807229 Z M844.315176,117.60241 C843.064573,117.60241 842.186666,118.526104 842.095562,119.803213 L846.451968,119.803213 C846.410558,118.51004 845.565779,117.60241 844.315176,117.60241 Z M846.443686,122.325301 L848.141525,122.325301 C847.893061,123.86747 846.385711,124.967871 844.389715,124.967871 C841.830533,124.967871 840.281773,123.289157 840.281773,120.62249 C840.281773,117.971888 841.85538,116.204819 844.315176,116.204819 C846.733561,116.204819 848.240911,117.859438 848.240911,120.421687 L848.240911,121.016064 L842.08728,121.016064 L842.08728,121.120482 C842.08728,122.590361 842.998315,123.562249 844.431126,123.562249 C845.449829,123.562249 846.203504,123.064257 846.443686,122.325301 Z M849.544208,124.807229 L849.544208,116.35743 L851.250329,116.35743 L851.250329,117.795181 L851.29174,117.795181 C851.581615,116.807229 852.360136,116.220884 853.387122,116.220884 C853.643868,116.220884 853.867486,116.261044 854,116.285141 L854,117.899598 C853.859204,117.843373 853.544482,117.803213 853.196632,117.803213 C852.045415,117.803213 851.333151,118.550201 851.333151,119.746988 L851.333151,124.807229 L849.544208,124.807229 Z" id="Stitcher" fill="#FFFFFF" fill-rule="nonzero"></path>
            <path d="M310,121.651987 L311.801602,121.651987 C311.966887,122.803974 313.090822,123.496778 314.677554,123.496778 C316.189908,123.496778 317.272522,122.739527 317.272522,121.700322 C317.272522,120.798067 316.644441,120.234157 315.049444,119.895811 L313.75196,119.629968 C311.363598,119.138561 310.280984,118.059076 310.280984,116.383459 C310.280984,114.393663 312.074322,113.024168 314.61144,113.024168 C317.140294,113.024168 318.867518,114.41783 318.925368,116.447905 L317.13203,116.447905 C317.016331,115.279807 316.032888,114.562836 314.586647,114.562836 C313.189993,114.562836 312.165228,115.223416 312.165228,116.286788 C312.165228,117.132653 312.776781,117.696563 314.322192,118.018797 L315.62794,118.28464 C318.123738,118.800215 319.148502,119.774973 319.148502,121.466702 C319.148502,123.657895 317.379957,125.035446 314.603176,125.035446 C311.909037,125.035446 310.115699,123.722342 310,121.651987 Z M325.043892,116.230397 C327.250442,116.230397 328.704946,117.922127 328.704946,120.604726 C328.704946,123.287325 327.258706,124.987111 325.076949,124.987111 C323.829051,124.987111 322.837343,124.390977 322.341489,123.448443 L322.300168,123.448443 L322.300168,127.645542 L320.515095,127.645542 L320.515095,116.367347 L322.242319,116.367347 L322.242319,117.825456 L322.275376,117.825456 C322.787758,116.850698 323.78773,116.230397 325.043892,116.230397 Z M324.572831,123.512889 C325.986015,123.512889 326.870287,122.38507 326.870287,120.604726 C326.870287,118.832438 325.986015,117.696563 324.572831,117.696563 C323.209234,117.696563 322.291904,118.856606 322.291904,120.604726 C322.291904,122.368958 323.200969,123.512889 324.572831,123.512889 Z M333.732592,125.003222 C331.245059,125.003222 329.608742,123.335661 329.608742,120.604726 C329.608742,117.881847 331.253324,116.214286 333.732592,116.214286 C336.211861,116.214286 337.856443,117.881847 337.856443,120.604726 C337.856443,123.335661 336.220126,125.003222 333.732592,125.003222 Z M333.732592,123.56928 C335.137511,123.56928 336.038312,122.489796 336.038312,120.604726 C336.038312,118.727712 335.129247,117.648228 333.732592,117.648228 C332.335938,117.648228 331.426872,118.727712 331.426872,120.604726 C331.426872,122.489796 332.335938,123.56928 333.732592,123.56928 Z M339.677568,114.361439 L341.470906,114.361439 L341.470906,116.367347 L343.123752,116.367347 L343.123752,117.744898 L341.470906,117.744898 L341.470906,122.417293 C341.470906,123.150376 341.801475,123.480666 342.528727,123.480666 C342.71054,123.480666 342.999788,123.464554 343.115488,123.440387 L343.115488,124.817938 C342.917146,124.866273 342.520463,124.898496 342.12378,124.898496 C340.363499,124.898496 339.677568,124.245972 339.677568,122.610634 L339.677568,117.744898 L338.413141,117.744898 L338.413141,116.367347 L339.677568,116.367347 L339.677568,114.361439 Z M344.564722,124.842105 L344.564722,116.367347 L346.349796,116.367347 L346.349796,124.842105 L344.564722,124.842105 Z M345.457259,114.997852 C344.887027,114.997852 344.42423,114.546724 344.42423,113.998926 C344.42423,113.443072 344.887027,113 345.457259,113 C346.027491,113 346.482024,113.443072 346.482024,113.998926 C346.482024,114.546724 346.027491,114.997852 345.457259,114.997852 Z M348.617189,124.842105 L348.617189,117.744898 L347.418876,117.744898 L347.418876,116.383459 L348.617189,116.383459 L348.617189,115.553706 C348.617189,113.910311 349.410555,113.13695 351.179101,113.13695 C351.542727,113.13695 351.947674,113.177229 352.179072,113.217508 L352.179072,114.506445 C352.005524,114.474221 351.765861,114.45811 351.526198,114.45811 C350.749361,114.45811 350.385735,114.836735 350.385735,115.585929 L350.385735,116.383459 L352.146015,116.383459 L352.146015,117.744898 L350.410527,117.744898 L350.410527,124.842105 L348.617189,124.842105 Z M354.339031,128 C354.190275,128 353.744006,127.983888 353.611779,127.959721 L353.611779,126.549946 C353.744006,126.58217 354.041519,126.58217 354.190275,126.58217 C355.016698,126.58217 355.462966,126.243824 355.735686,125.373792 C355.735686,125.35768 355.892706,124.858217 355.892706,124.850161 L352.752299,116.367347 L354.686129,116.367347 L356.884414,123.263158 L356.917471,123.263158 L359.115756,116.367347 L361,116.367347 L357.743894,125.285177 C357.000113,127.33942 356.140633,128 354.339031,128 Z" id="Spotify" fill="#FFFFFF" fill-rule="nonzero"></path>
            <rect id="Rectangle" fill="#3392C5" x="767" y="109" width="5" height="15"></rect>
            <rect id="Rectangle" fill="#622268" x="772" y="107" width="5" height="15"></rect>
            <rect id="Rectangle" fill="#FBC818" x="777" y="109" width="5" height="15"></rect>
            <rect id="Rectangle" fill="#EC8A22" x="782" y="106" width="5" height="15"></rect>
            <rect id="Rectangle" fill="#C53726" x="787" y="108" width="5" height="15"></rect>
            <path d="M902.686798,133.997909 C902.337224,133.997909 901.99614,133.99383 901.64932,133.98672 C901.00788,133.970302 900.247124,133.937676 899.504954,133.816166 C898.80466,133.700722 898.182379,133.51281 897.604269,133.243229 C897.005967,132.966538 896.468241,132.609118 896.00153,132.180174 C895.526445,131.755411 895.136029,131.26728 894.83074,130.719858 C894.533252,130.19199 894.329955,129.625222 894.207771,128.986929 C894.067689,128.283384 894.031894,127.569487 894.01675,127.026247 C894.009522,126.80571 894,126.071421 894,126.071421 L894,101.915194 C894,101.915194 894.010096,101.192199 894.01675,100.979818 C894.031894,100.431977 894.067689,99.7187075 894.206624,99.0221688 C894.329382,98.3804246 894.532678,97.8141797 894.830166,97.2841159 C895.134881,96.7357524 895.525871,96.2451114 895.994761,95.8223361 C896.469273,95.389313 897.009294,95.0309526 897.603581,94.7531109 C898.192934,94.4804978 898.814182,94.29405 899.500365,94.1843564 C900.272823,94.0582453 901.056066,94.0265607 901.652073,94.0127575 L902.687371,94 L1001.30689,94 L1002.35447,94.0132804 C1002.94267,94.0265607 1003.7258,94.0582453 1004.48656,94.1833107 C1005.17779,94.2936317 1005.80305,94.4810206 1006.40353,94.756248 C1006.99174,95.0309526 1007.53061,95.3894175 1008.00008,95.8182579 C1008.46954,96.24302 1008.86271,96.7362752 1009.17419,97.2867301 C1009.46996,97.8212904 1009.67165,98.3875353 1009.78821,99.0109798 C1009.92153,99.67071 1009.96294,100.348217 1009.98761,100.984419 C1009.99094,101.28056 1009.99094,101.598662 1009.99094,101.915194 C1010,102.30733 1010,102.68054 1010,103.056886 L1010,124.941964 C1010,125.321866 1010,125.692565 1009.99094,126.066297 C1009.99094,126.406358 1009.99094,126.717871 1009.98646,127.038482 C1009.96294,127.654293 1009.92153,128.331381 1009.79039,128.976681 C1009.67165,129.618007 1009.46996,130.184775 1009.17087,130.722995 C1008.86168,131.266234 1008.46839,131.757398 1008.0057,132.172017 C1007.53176,132.609118 1006.99392,132.965492 1006.40021,133.241242 C1005.80523,133.516888 1005.19798,133.699676 1004.48656,133.816166 C1003.75161,133.937676 1002.99086,133.970302 1002.34208,133.98672 C1002.00604,133.99383 1001.65417,133.997909 1001.31251,133.997909 L1000.06887,134 L902.686798,133.997909 Z" id="Path-Copy-4" fill="#000000"></path>
            <path d="M934,108.895803 L934,103.104197 L934.91019,103.104197 L934.91019,108.131693 L937.668064,108.131693 L937.668064,108.895803 L934,108.895803 Z M939.008719,103.998553 C938.726561,103.998553 938.48081,103.781476 938.48081,103.503618 C938.48081,103.22576 938.726561,103 939.008719,103 C939.29998,103 939.536629,103.22576 939.536629,103.503618 C939.536629,103.781476 939.29998,103.998553 939.008719,103.998553 Z M938.608236,108.895803 L938.608236,104.701881 L939.427407,104.701881 L939.427407,108.895803 L938.608236,108.895803 Z M940.303866,108.34877 L940.695247,107.775687 C940.99561,108.088278 941.578131,108.374819 942.169754,108.374819 C942.788683,108.374819 943.116351,108.131693 943.116351,107.775687 C943.116351,107.3589 942.615747,107.219971 942.05143,107.098408 C941.305074,106.93343 940.431292,106.742402 940.431292,105.839363 C940.431292,105.170767 941.032017,104.597685 942.106041,104.597685 C942.861498,104.597685 943.407612,104.858177 943.78079,105.196816 L943.416714,105.743849 C943.161861,105.448625 942.670358,105.231548 942.115143,105.231548 C941.559927,105.231548 941.214055,105.439942 941.214055,105.778582 C941.214055,106.143271 941.687354,106.264834 942.233467,106.386397 C942.998027,106.551375 943.908216,106.751085 943.908216,107.714906 C943.908216,108.435601 943.289287,109 942.133347,109 C941.396093,109 940.749859,108.782923 940.303866,108.34877 Z M946.113552,109 C945.421808,109 945.066834,108.626628 945.066834,107.966715 L945.066834,105.387844 L944.338682,105.387844 L944.338682,104.701881 L945.066834,104.701881 L945.066834,103.555716 L945.886004,103.555716 L945.886004,104.701881 L946.77799,104.701881 L946.77799,105.387844 L945.886004,105.387844 L945.886004,107.793054 C945.886004,108.088278 946.031635,108.305355 946.313794,108.305355 C946.504933,108.305355 946.677869,108.227207 946.759786,108.140376 L946.96913,108.730825 C946.796194,108.88712 946.541341,109 946.113552,109 Z M947.37229,106.794501 C947.37229,105.578871 948.291582,104.597685 949.574949,104.597685 C950.894724,104.597685 951.713895,105.578871 951.713895,106.863965 L951.713895,107.054993 L948.236971,107.054993 C948.300684,107.767004 948.846798,108.357453 949.729681,108.357453 C950.193878,108.357453 950.703584,108.183792 951.031252,107.862518 L951.413532,108.374819 C950.976641,108.782923 950.357712,109 949.647764,109 C948.337091,109 947.37229,108.114327 947.37229,106.794501 Z M949.574949,105.240232 C948.692065,105.240232 948.273378,105.917511 948.227869,106.490593 L950.912928,106.490593 C950.894724,105.934877 950.503342,105.240232 949.574949,105.240232 Z M955.666794,108.895803 L955.666794,106.212735 C955.666794,105.51809 955.293616,105.29233 954.729299,105.29233 C954.219593,105.29233 953.755396,105.587554 953.518747,105.900145 L953.518747,108.895803 L952.699576,108.895803 L952.699576,104.701881 L953.518747,104.701881 L953.518747,105.29233 C953.810007,104.95369 954.392529,104.597685 955.075171,104.597685 C956.003564,104.597685 956.485965,105.06657 956.485965,105.952243 L956.485965,108.895803 L955.666794,108.895803 Z M961.997965,109 C960.632681,109 959.777103,108.01013 959.777103,106.794501 C959.777103,105.587554 960.632681,104.597685 961.997965,104.597685 C963.372352,104.597685 964.218828,105.587554 964.218828,106.794501 C964.218828,108.01013 963.372352,109 961.997965,109 Z M961.997965,108.305355 C962.880849,108.305355 963.36325,107.593343 963.36325,106.794501 C963.36325,106.004342 962.880849,105.29233 961.997965,105.29233 C961.124184,105.29233 960.632681,106.004342 960.632681,106.794501 C960.632681,107.593343 961.124184,108.305355 961.997965,108.305355 Z M968.180829,108.895803 L968.180829,106.212735 C968.180829,105.51809 967.807652,105.29233 967.243334,105.29233 C966.733628,105.29233 966.269431,105.587554 966.032782,105.900145 L966.032782,108.895803 L965.213612,108.895803 L965.213612,104.701881 L966.032782,104.701881 L966.032782,105.29233 C966.324043,104.95369 966.906564,104.597685 967.589206,104.597685 C968.5176,104.597685 969,105.06657 969,105.952243 L969,108.895803 L968.180829,108.895803 Z" id="Listenon-Copy-4" fill="#FFFFFF" fill-rule="nonzero"></path>
            <path d="M300.098432,112.638262 C296.230312,110.341091 289.849934,110.129874 286.15735,111.250588 C285.56425,111.430567 284.937189,111.095829 284.757496,110.502872 C284.577804,109.909485 284.912255,109.282853 285.505642,109.102588 C289.744468,107.815937 296.791027,108.064411 301.24408,110.707785 C301.777426,111.024468 301.95239,111.713289 301.63628,112.245776 C301.319883,112.779122 300.630489,112.954945 300.098432,112.638262 Z M299.971759,116.040672 C299.700357,116.481019 299.124595,116.619156 298.684821,116.348758 C295.459955,114.36655 290.542481,113.792221 286.727237,114.950336 C286.232437,115.099793 285.709982,114.82094 285.559665,114.327 C285.410637,113.832344 285.689634,113.310748 286.183574,113.160288 C290.541908,111.83767 295.960056,112.478201 299.66396,114.754451 C300.103734,115.02528 300.242158,115.601328 299.971759,116.040672 Z M298.503409,119.308241 C298.287749,119.661894 297.827341,119.772662 297.474977,119.557145 C294.65707,117.834876 291.110218,117.445972 286.933153,118.400033 C286.530635,118.492316 286.129408,118.240116 286.037555,117.837598 C285.945416,117.435224 286.196757,117.033997 286.600134,116.942144 C291.171262,115.897233 295.092258,116.346895 298.255221,118.279665 C298.607872,118.495038 298.718926,118.955734 298.503409,119.308241 Z M293,102 C286.372724,102 281,107.37258 281,113.999857 C281,120.627849 286.372724,126 293,126 C299.627563,126 305,120.627849 305,113.999857 C305,107.37258 299.627563,102 293,102 L293,102 Z" id="Spotify_Icon_RGB_Green" fill="#1ED760"></path>
            <g id="logo" transform="translate(903.000000, 101.000000)" fill="#FC7E0F" fill-rule="nonzero">
                <path d="M12.5,25 C5.5728125,25 0,19.4271875 0,12.5 C0,5.5728125 5.5728125,0 12.5,0 C19.4271875,0 25,5.5728125 25,12.5 C25,19.4271875 19.4271875,25 12.5,25 Z M12.5,20.0521875 L13.4375,19.1146875 L12.5,15.5209375 L11.5625,19.1146875 L12.5,20.0521875 Z M11.3021875,20 L10.8334375,21.7709375 L11.9271875,20.6771875 L11.3021875,20 Z M13.6978125,20 L13.0728125,20.625 L14.1665625,21.71875 L13.6978125,20 Z M14.5834375,23.2290625 L12.5,21.1459375 L10.4165625,23.2290625 C11.09375,23.3334375 11.7709375,23.4375 12.5,23.4375 C13.2290625,23.4375 13.90625,23.3853125 14.5834375,23.2290625 Z M12.5,1.5625 C6.4584375,1.5625 1.5625,6.4584375 1.5625,12.5 C1.5625,17.2915625 4.6353125,21.3540625 8.90625,22.8125 L11.25,14.1146875 C10.7290625,13.75 10.4165625,13.125 10.4165625,12.4478125 C10.4165625,11.3021875 11.3540625,10.3646875 12.5,10.3646875 C13.6459375,10.3646875 14.5834375,11.3021875 14.5834375,12.4478125 C14.5834375,13.125 14.2709375,13.6978125 13.75,14.1146875 L16.09375,22.8125 C20.3646875,21.3540625 23.4375,17.2915625 23.4375,12.5 C23.4375,6.4584375 18.5415625,1.5625 12.5,1.5625 Z M19.6353125,17.9165625 C19.375,18.2290625 18.90625,18.3334375 18.5415625,18.0728125 C18.1771875,17.8125 18.125,17.34375 18.3853125,17.03125 C18.3853125,17.03125 19.7915625,15.15625 19.7915625,12.5 C19.7915625,9.84375 18.3853125,7.96875 18.3853125,7.96875 C18.125,7.65625 18.1771875,7.1875 18.5415625,6.9271875 C18.90625,6.6665625 19.375,6.7709375 19.6353125,7.0834375 C19.7396875,7.1875 21.3540625,9.3228125 21.3540625,12.5 C21.3540625,15.6771875 19.7396875,17.8125 19.6353125,17.9165625 Z M15.8334375,15.8853125 C15.5209375,15.5728125 15.5728125,15 15.8853125,14.6875 C15.8853125,14.6875 16.6665625,13.8540625 16.6665625,12.5 C16.6665625,11.1459375 15.8853125,10.3646875 15.8853125,10.3125 C15.5728125,10 15.5728125,9.4790625 15.8334375,9.1146875 C16.1459375,8.75 16.6146875,8.75 16.9271875,9.0625 C16.9790625,9.1146875 18.2290625,10.4165625 18.2290625,12.5 C18.2290625,14.5834375 16.9790625,15.8853125 16.9271875,15.9375 C16.6146875,16.25 16.1459375,16.1978125 15.8334375,15.8853125 Z M9.1665625,15.8853125 C8.8540625,16.1978125 8.3853125,16.25 8.0728125,15.9375 C8.0209375,15.8334375 6.7709375,14.5834375 6.7709375,12.5 C6.7709375,10.4165625 8.0209375,9.1665625 8.0728125,9.0625 C8.3853125,8.75 8.90625,8.75 9.1665625,9.1146875 C9.4790625,9.4271875 9.4271875,10 9.1146875,10.3125 C9.1146875,10.3646875 8.3334375,11.1459375 8.3334375,12.5 C8.3334375,13.8540625 9.1146875,14.6875 9.1146875,14.6875 C9.4271875,15 9.4790625,15.5209375 9.1665625,15.8853125 Z M6.4584375,18.0728125 C6.09375,18.3334375 5.625,18.2290625 5.3646875,17.9165625 C5.2603125,17.8125 3.6459375,15.6771875 3.6459375,12.5 C3.6459375,9.3228125 5.2603125,7.1875 5.3646875,7.0834375 C5.625,6.7709375 6.09375,6.6665625 6.4584375,6.9271875 C6.8228125,7.1875 6.875,7.65625 6.6146875,7.96875 C6.6146875,7.96875 5.2084375,9.84375 5.2084375,12.5 C5.2084375,15.15625 6.6146875,17.03125 6.6146875,17.03125 C6.875,17.34375 6.7709375,17.8125 6.4584375,18.0728125 Z" id="overcastCanvas-bezier"></path>
            </g>
            <path d="M939.611328,125.376465 C943.056152,125.376465 945.222656,123.002441 945.222656,119.192383 C945.222656,115.382324 943.056152,113 939.611328,113 C936.158203,113 934,115.382324 934,119.192383 C934,123.002441 936.158203,125.376465 939.611328,125.376465 Z M939.611328,123.741211 C937.336914,123.741211 935.900879,121.981445 935.900879,119.192383 C935.900879,116.39502 937.336914,114.635254 939.611328,114.635254 C941.885742,114.635254 943.313477,116.39502 943.313477,119.192383 C943.313477,121.981445 941.885742,123.741211 939.611328,123.741211 Z M951.099609,125.177246 L954.229004,116.444824 L952.353027,116.444824 L950.161621,123.425781 L950.128418,123.425781 L947.937012,116.444824 L946.027832,116.444824 L949.173828,125.177246 L951.099609,125.177246 Z M958.985352,125.343262 C960.98584,125.343262 962.496582,124.206055 962.745605,122.612305 L961.043945,122.612305 C960.803223,123.375977 960.047852,123.890625 959.026855,123.890625 C957.59082,123.890625 956.677734,122.88623 956.677734,121.367188 L956.677734,121.259277 L962.845215,121.259277 L962.845215,120.64502 C962.845215,117.99707 961.334473,116.287109 958.910645,116.287109 C956.445312,116.287109 954.868164,118.113281 954.868164,120.852539 C954.868164,123.608398 956.42041,125.343262 958.985352,125.343262 Z M961.052246,120.005859 L956.686035,120.005859 C956.777344,118.686035 957.657227,117.731445 958.910645,117.731445 C960.164062,117.731445 961.010742,118.669434 961.052246,120.005859 Z M966.024414,125.177246 L966.024414,119.947754 C966.024414,118.710938 966.738281,117.938965 967.89209,117.938965 C968.240723,117.938965 968.556152,117.980469 968.697266,118.038574 L968.697266,116.370117 C968.564453,116.345215 968.340332,116.303711 968.083008,116.303711 C967.053711,116.303711 966.273438,116.909668 965.98291,117.930664 L965.941406,117.930664 L965.941406,116.444824 L964.231445,116.444824 L964.231445,125.177246 L966.024414,125.177246 Z M973.544922,125.343262 C975.64502,125.343262 977.130859,124.081543 977.321777,122.222168 L975.595215,122.222168 C975.387695,123.234863 974.665527,123.84082 973.561523,123.84082 C972.166992,123.84082 971.245605,122.728516 971.245605,120.811035 C971.245605,118.935059 972.158691,117.78125 973.544922,117.78125 C974.715332,117.78125 975.412598,118.52002 975.595215,119.449707 L977.305176,119.449707 C977.147461,117.731445 975.777832,116.287109 973.52832,116.287109 C971.046387,116.287109 969.419434,118.038574 969.419434,120.811035 C969.419434,123.633301 971.046387,125.343262 973.544922,125.343262 Z M981.148438,125.32666 C982.293945,125.32666 983.397949,124.712402 983.904297,123.741211 L983.945801,123.741211 L983.945801,125.177246 L985.664062,125.177246 L985.664062,119.15918 C985.664062,117.407715 984.311035,116.287109 982.194336,116.287109 C980.036133,116.287109 978.691406,117.449219 978.591797,119.026367 L980.285156,119.026367 C980.442871,118.246094 981.090332,117.748047 982.12793,117.748047 C983.223633,117.748047 983.879395,118.329102 983.879395,119.300293 L983.879395,119.972656 L981.48877,120.11377 C979.413574,120.22998 978.243164,121.167969 978.243164,122.695312 C978.243164,124.26416 979.438477,125.32666 981.148438,125.32666 Z M981.646484,123.907227 C980.683594,123.907227 980.052734,123.40918 980.052734,122.645508 C980.052734,121.898438 980.658691,121.425293 981.729492,121.350586 L983.879395,121.217773 L983.879395,121.906738 C983.879395,123.043945 982.899902,123.907227 981.646484,123.907227 Z M990.677734,125.343262 C992.736328,125.343262 994.222168,124.247559 994.222168,122.653809 C994.222168,121.39209 993.541504,120.694824 991.756836,120.279785 L990.337402,119.956055 C989.391113,119.740234 988.992676,119.366699 988.992676,118.818848 C988.992676,118.121582 989.640137,117.648438 990.611328,117.648438 C991.615723,117.648438 992.238281,118.179688 992.337891,119.026367 L994.022949,119.026367 C993.964844,117.416016 992.64502,116.287109 990.611328,116.287109 C988.602539,116.287109 987.241211,117.35791 987.241211,118.918457 C987.241211,120.188477 988.062988,120.985352 989.723145,121.367188 L991.142578,121.699219 C992.097168,121.915039 992.420898,122.24707 992.420898,122.811523 C992.420898,123.525391 991.756836,123.973633 990.677734,123.973633 C989.582031,123.973633 988.959473,123.525391 988.793457,122.612305 L987.01709,122.612305 C987.183105,124.272461 988.494629,125.343262 990.677734,125.343262 Z M998.588379,125.235352 C998.986816,125.235352 999.385254,125.202148 999.584473,125.152344 L999.584473,123.73291 C999.468262,123.757812 999.177734,123.774414 998.995117,123.774414 C998.264648,123.774414 997.932617,123.434082 997.932617,122.678711 L997.932617,117.864258 L999.592773,117.864258 L999.592773,116.444824 L997.932617,116.444824 L997.932617,114.37793 L996.131348,114.37793 L996.131348,116.444824 L994.861328,116.444824 L994.861328,117.864258 L996.131348,117.864258 L996.131348,122.87793 C996.131348,124.562988 996.820312,125.235352 998.588379,125.235352 Z" id="Overcast" fill="#FFFFFF" fill-rule="nonzero"></path>
        </g>
    </g>
</svg>