<svg width="51" height="50" viewBox="0 0 51 50" fill="none" xmlns="http://www.w3.org/2000/svg">
<path d="M9.97771 14.5778C19.3988 11.82 33.6602 12.6889 42.5287 17.8646C44.8001 19.1774 43.9076 22.4877 41.4898 22.4877H41.4851C40.9609 22.4877 40.6398 22.3555 40.1817 22.091C33.0085 17.8079 20.1732 16.7784 11.8666 19.1018C11.503 19.201 11.0497 19.3615 10.5633 19.3615C9.23158 19.3615 8.21628 18.3226 8.21628 16.9815C8.221 15.6167 9.07102 14.8423 9.97771 14.5778ZM38.3683 30.1757C38.1322 30.1143 38.2031 30.3173 37.1264 29.7507C30.8173 26.02 21.4294 24.5183 13.0708 26.785C12.5892 26.9173 12.3247 27.0495 11.8714 27.0495C9.6377 27.0495 9.04741 23.6919 11.4794 23.0072C21.3066 20.2446 31.8468 21.8597 39.1806 26.2231C39.9975 26.7048 40.3187 27.3328 40.3187 28.2112C40.3092 29.2973 39.4639 30.1757 38.3683 30.1757ZM35.653 36.7869C33.9719 36.7869 28.6592 30.8982 13.7367 33.9535C13.3447 34.0574 12.83 34.218 12.5372 34.218C10.6294 34.218 10.2658 31.3657 12.3153 30.9312C20.5699 29.1084 29.0087 29.269 36.2055 33.5757C37.9197 34.6666 37.1925 36.7869 35.653 36.7869ZM25.5 50C39.2986 50 50.5 38.7986 50.5 25C50.5 11.2014 39.3034 0 25.5 0C11.6966 0 0.5 11.2014 0.5 25C0.5 38.8034 11.7014 50 25.5 50Z" fill="#8DC832"/>
</svg>
