<svg id="Capa_1" enable-background="new 0 0 512 512" height="512" viewBox="0 0 512 512" width="512" xmlns="http://www.w3.org/2000/svg"><path d="m421 226v30c0 85.92-66.02 156.71-150 164.31v61.69h75c8.28 0 15 6.72 15 15s-6.72 15-15 15h-180c-8.28 0-15-6.72-15-15s6.72-15 15-15h75v-61.69c-83.98-7.6-150-78.39-150-164.31v-30c0-8.28 6.72-15 15-15h50v30h-35v15c0 74.44 60.56 135 135 135s135-60.56 135-135v-15h-35v-30h50c8.28 0 15 6.72 15 15z" fill="#0097f0"/><path d="m421 226v30c0 85.92-66.02 156.71-150 164.31v61.69h75c8.28 0 15 6.72 15 15s-6.72 15-15 15h-90v-121c74.44 0 135-60.56 135-135v-15h-35v-30h50c8.28 0 15 6.72 15 15z" fill="#0052c2"/><path d="m256 0c-57.897 0-105 47.103-105 105v151c0 57.897 47.103 105 105 105s105-47.103 105-105v-151c0-57.897-47.103-105-105-105z" fill="#ffda2d"/><g fill="#fdbf00"><path d="m361 105v151c0 57.9-47.1 105-105 105v-361c57.9 0 105 47.1 105 105z"/><path d="m106 46c-8.284 0-15 6.716-15 15v75c0 8.284 6.716 15 15 15s15-6.716 15-15v-75c0-8.284-6.716-15-15-15z"/><path d="m46 0c-8.284 0-15 6.716-15 15v166c0 8.284 6.716 15 15 15s15-6.716 15-15v-166c0-8.284-6.716-15-15-15z"/></g><path d="m406 46c-8.284 0-15 6.716-15 15v75c0 8.284 6.716 15 15 15s15-6.716 15-15v-75c0-8.284-6.716-15-15-15z" fill="#fe9022"/><path d="m466 0c-8.284 0-15 6.716-15 15v166c0 8.284 6.716 15 15 15s15-6.716 15-15v-166c0-8.284-6.716-15-15-15z" fill="#fe9022"/></svg>