<svg width="50" height="50" viewBox="0 0 50 50" fill="none" xmlns="http://www.w3.org/2000/svg">
<path d="M21.888 29.6845L30.0198 25L21.888 20.3154V29.6845Z" fill="#8DC832"/>
<path d="M40.6215 25.0283C40.6215 25.0283 40.6215 30.1001 39.9792 32.5416C39.6203 33.878 38.5625 34.9358 37.2261 35.2947C34.7799 35.9369 25 35.9369 25 35.9369C25 35.9369 15.2437 35.9369 12.7739 35.2663C11.4375 34.9074 10.3797 33.8496 10.0208 32.5132C9.37854 30.0954 9.37854 25 9.37854 25C9.37854 25 9.37854 19.9282 10.0208 17.4868C10.3797 16.1504 11.4611 15.0689 12.7739 14.71C15.2201 14.0678 25 14.0678 25 14.0678C25 14.0678 34.7799 14.0678 37.2261 14.7384C38.5625 15.0973 39.6203 16.1551 39.9792 17.4915C40.6498 19.9329 40.6215 25.0283 40.6215 25.0283ZM25 0C11.1966 0 0 11.1966 0 25C0 38.8081 11.1966 50 25 50C38.8034 50 50 38.8034 50 25C50 11.1966 38.8081 0 25 0Z" fill="#8DC832"/>
</svg>
